<ttFont>
<head>
    <!-- Most of this table will be recalculated by the compiler -->
    <tableVersion value="1.0"/>
    <fontRevision value="2.01"/>
    <checkSumAdjustment value="0x8900f923"/>
    <magicNumber value="0x5f0f3cf5"/>
    <flags value="00000000 00000011"/>
    <unitsPerEm value="1000"/>
    <created value="Wed Feb  7 19:18:52 2018"/>
    <modified value="Wed Feb  7 19:18:52 2018"/>
    <xMin value="-420"/>
    <yMin value="-609"/>
    <xMax value="1771"/>
    <yMax value="930"/>
    <macStyle value="00000000 00000000"/>
    <lowestRecPPEM value="3"/>
    <fontDirectionHint value="2"/>
    <indexToLocFormat value="0"/>
    <glyphDataFormat value="0"/>
  </head>
          <CharString index="0">
            -107 callgsubr
            71 return
          </CharString>
          <CharString index="1">
            318 callsubr
            -105 callgsubr
            return
          </CharString>
          <CharString index="2">
            rmoveto
            83 -48 51 -103 -103 -49 -51 -83 -17 3 -19 1 -4 vhcurveto
            72 hlineto
            -1 4 -2 16 18 vvcurveto
            38 16 31 63 63 16 -30 -38 vhcurveto
            -137 vlineto
            -39 -16 -29 -63 -31 -29 6 7 -19 vhcurveto
            74 -73 -254 vlineto
            -94 68 -59 108 333 callgsubr
            vhcurveto
            -72 callsubr
            return
          </CharString>
          <CharString index="3">
            -81 callgsubr
            48 callgsubr
            -26 -40 hvcurveto
            return
          </CharString>
          <CharString index="4">
            rmoveto
            43 -7 -98 callsubr
            80 1 47 36 82 vvcurveto
            return
          </CharString>
          <CharString index="5">
            -99 callsubr
            58 -23 callsubr
            return
          </CharString>
          <CharString index="6">
            -69 callsubr
            62 return
          </CharString>
          <CharString index="7">
            145 callgsubr
            170 256 callsubr
            return
          </CharString>
          <CharString index="8">
            -79 callgsubr
            -191 vlineto
            191 callsubr
            -5 callsubr
            vhcurveto
            -93 callgsubr
            return
          </CharString>
          <CharString index="9">
            -85 callsubr
            -57 callsubr
            return
          </CharString>
          <CharString index="10">
            0 callgsubr
            -140 vlineto
            -38 -16 -30 -63 -22 -22 4 5 -18 vhcurveto
            return
          </CharString>
          <CharString index="11">
            hhcurveto
            -96 -61 -90 callsubr
            return
          </CharString>
          <CharString index="12">
            vlineto
            -95 callgsubr
            return
          </CharString>
          <CharString index="13">
            -62 286 -451 vlineto
            -107 callsubr
            return
          </CharString>
          <CharString index="14">
            -38 -16 -28 -52 vhcurveto
            -9 -14 2 -6 hhcurveto
            196 callgsubr
            21 -2 11 hhcurveto
            88 43 53 79 hvcurveto
            return
          </CharString>
          <CharString index="15">
            74 callsubr
            -57 -96 callsubr
            return
          </CharString>
          <CharString index="16">
            49 134 424 rmoveto
            53 24 36 64 64 24 -36 -53 vhcurveto
            -112 -176 vlineto
            235 -301 rmoveto
            -46 callsubr
            -116 -50 -67 -89 vhcurveto
            -278 vlineto
            -100 60 -52 131 57 36 8 8 29 vhcurveto
            return
          </CharString>
          <CharString index="17">
            33 84 hvcurveto
            82 vlineto
            -3 18 21 -3 26 hhcurveto
            100 47 49 97 hvcurveto
            122 vlineto
            44 -11 2 callsubr
            return
          </CharString>
          <CharString index="18">
            41 callsubr
            -11 -26 -51 -6 -6 268 callgsubr
            -68 vlineto
            -1 5 9 0 9 hhcurveto
            91 35 53 75 hvcurveto
            177 vlineto
            83 -47 45 -95 -30 -24 -4 -5 -15 vhcurveto
            94 return
          </CharString>
          <CharString index="19">
            hhcurveto
            -50 -30 -99 callsubr
            60 12 -29 -39 vhcurveto
            -138 72 138 vlineto
            41 12 27 53 192 callgsubr
            return
          </CharString>
          <CharString index="20">
            rmoveto
            -66 30 -36 52 -25 vhcurveto
            85 -41 rlineto
            50 -25 13 -16 -35 vvcurveto
            -19 vlineto
            -46 -25 -27 -88 -46 -40 8 10 -28 vhcurveto
            -73 vlineto
            -9 29 37 -7 54 hhcurveto
            126 60 50 92 hvcurveto
            27 vlineto
            62 -36 34 -53 27 vhcurveto
            -86 43 rlineto
            -43 21 -14 15 42 vvcurveto
            24 vlineto
            48 16 25 84 41 41 -9 -9 26 vhcurveto
            72 vlineto
            9 -28 -43 8 -41 hhcurveto
            -126 -47 -50 -91 hvcurveto
            return
          </CharString>
          <CharString index="21">
            rmoveto
            -87 callgsubr
            return
          </CharString>
          <CharString index="22">
            -30 callsubr
            -25 -37 -6 return
          </CharString>
          <CharString index="23">
            6 27 476 rmoveto
            -69 32 -42 56 -30 vhcurveto
            114 -63 rlineto
            41 -22 13 -20 -43 vvcurveto
            -39 vlineto
            -47 -31 -33 -84 -51 -52 11 12 -32 vhcurveto
            -76 vlineto
            -9 25 53 -11 58 hhcurveto
            132 61 56 91 hvcurveto
            55 vlineto
            64 -26 39 -55 30 vhcurveto
            -116 65 rlineto
            -42 23 -16 22 46 vvcurveto
            45 vlineto
            48 30 27 69 52 47 -8 -11 30 vhcurveto
            75 vlineto
            8 -26 -46 9 -58 hhcurveto
            -120 -58 -56 -88 hvcurveto
            return
          </CharString>
          <CharString index="24">
            -183 -86 callgsubr
            return
          </CharString>
          <CharString index="25">
            -93 callgsubr
            58 -13 callgsubr
            return
          </CharString>
          <CharString index="26">
            73 56 150 rmoveto
            -91 55 110 callsubr
            373 vlineto
            92 -54 69 -119 -119 -55 -69 -92 vhcurveto
            269 -370 rmoveto
            -55 -27 -37 -68 -69 -26 37 55 vhcurveto
            368 vlineto
            55 26 36 69 68 27 -37 -54 vhcurveto
            return
          </CharString>
          <CharString index="27">
            -86 55 -49 100 36 23 3 6 25 vhcurveto
            -88 267 callsubr
            -96 vlineto
            -5 -26 -19 -3 -33 hhcurveto
            -64 335 callgsubr
            163 192 callsubr
            64 vhcurveto
            142 155 96 62 return
          </CharString>
          <CharString index="28">
            242 186 -70 callsubr
            return
          </CharString>
          <CharString index="29">
            -58 callgsubr
            -22 -22 3 3 -18 vhcurveto
            return
          </CharString>
          <CharString index="30">
            -79 38 -48 94 vhcurveto
            22 67 hlineto
            -60 callgsubr
            return
          </CharString>
          <CharString index="31">
            2 10 1 11 12 vvcurveto
            95 callsubr
            return
          </CharString>
          <CharString index="32">
            -41 -73 callsubr
            return
          </CharString>
          <CharString index="33">
            -98 66 -52 109 59 44 10 8 26 vhcurveto
            return
          </CharString>
          <CharString index="34">
            108 -61 callgsubr
            return
          </CharString>
          <CharString index="35">
            67 vlineto
            -11 -35 -26 callgsubr
            29 -6 34 hhcurveto
            100 47 48 83 hvcurveto
            return
          </CharString>
          <CharString index="36">
            -22 callgsubr
            -10 23 38 vhcurveto
            return
          </CharString>
          <CharString index="37">
            -71 callsubr
            122 -53 callgsubr
            return
          </CharString>
          <CharString index="38">
            590 95 return
          </CharString>
          <CharString index="39">
            66 callgsubr
            -48 callsubr
            return
          </CharString>
          <CharString index="40">
            30 callsubr
            -43 -15 callgsubr
            return
          </CharString>
          <CharString index="41">
            -18 -28 -21 hvcurveto
            26 -18 -35 20 -55 hhcurveto
            return
          </CharString>
          <CharString index="42">
            rmoveto
            -36 -62 -37 62 rlineto
            -46 hlineto
            51 -108 rlineto
            64 hlineto
            51 225 callgsubr
          </CharString>
          <CharString index="43">
            -52 -51 -15 23 38 vhcurveto
            return
          </CharString>
          <CharString index="44">
            vlineto
            -80 41 -44 99 100 40 44 80 vhcurveto
            153 126 -337 -103 callgsubr
            -167 -252 -124 127 vlineto
            173 callgsubr
            -43 -47 -83 -23 4 -28 177 callsubr
            28 21 113 callgsubr
          </CharString>
          <CharString index="45">
            6 5 23 -36 callgsubr
            return
          </CharString>
          <CharString index="46">
            rmoveto
            -11 vlineto
            -20 -5 -11 -17 vhcurveto
            -27 -32 40 -48 hhcurveto
            -48 -21 -34 -44 hvcurveto
            -12 53 10 vlineto
            21 6 11 16 vhcurveto
            32 29 -40 47 hhcurveto
            44 24 29 48 hvcurveto
            13 vlineto
            endchar
          </CharString>
          <CharString index="47">
            vlineto
            42 -19 callgsubr
            return
          </CharString>
          <CharString index="48">
            rmoveto
            -39 -108 rlineto
            49 hlineto
            61 225 callgsubr
          </CharString>
          <CharString index="49">
            rmoveto
            -521 vlineto
            -55 -26 -37 -69 -68 -26 37 55 vhcurveto
            521 -79 -524 vlineto
            -91 54 110 callsubr
            524 vlineto
            return
          </CharString>
          <CharString index="50">
            -44 hhcurveto
            -91 295 callgsubr
            66 vlineto
            return
          </CharString>
          <CharString index="51">
            -131 78 -61 152 73 71 17 12 41 vhcurveto
            -21 35 46 -8 48 hhcurveto
            46 39 31 callgsubr
            -481 -62 126 vlineto
            182 callgsubr
            -37 7 -30 13 -24 vhcurveto
            -9 -41 -46 -7 -44 330 callgsubr
            470 245 27 callgsubr
          </CharString>
          <CharString index="52">
            167 159 callsubr
            25 210 callsubr
            145 62 -510 188 callsubr
            -30 273 callgsubr
            99 vhcurveto
            19 hlineto
            63 16 -25 -38 hvcurveto
            -39 vlineto
            -49 -36 -18 -67 -50 -51 6 9 -37 vhcurveto
            -66 vlineto
            return
          </CharString>
          <CharString index="53">
            -11 callsubr
            -465 -62 293 -85 -69 hlineto
            157 callgsubr
            return
          </CharString>
          <CharString index="54">
            -104 callsubr
            -229 129 callsubr
            -8 callsubr
            return
          </CharString>
          <CharString index="55">
            44 vlineto
            88 -51 38 -73 -28 -18 -6 0 vhcurveto
            -65 vlineto
            0 19 6 21 36 24 -18 -44 vhcurveto
            -40 vlineto
            -43 -17 -31 -69 -69 -17 31 43 vhcurveto
            236 231 callsubr
            return
          </CharString>
          <CharString index="56">
            vlineto
            38 15 23 51 vhcurveto
            return
          </CharString>
          <CharString index="57">
            87 hlineto
            180 209 rlineto
            0 0 0 0 vhcurveto
            381 vmoveto
            -318 vlineto
            -6 -14 -28 -7 -35 hhcurveto
            -64 -21 29 39 hvcurveto
            263 vlineto
            endchar
          </CharString>
          <CharString index="58">
            vlineto
            -42 callsubr
            return
          </CharString>
          <CharString index="59">
            -126 -31 callgsubr
            return
          </CharString>
          <CharString index="60">
            21 callsubr
            -39 334 callsubr
            -10 -39 -45 -8 -36 -44 callgsubr
            return
          </CharString>
          <CharString index="61">
            73 vlineto
            -9 -27 -42 -9 -49 hhcurveto
            -86 -31 29 56 hvcurveto
            96 252 178 vlineto
            89 -48 67 -116 return
          </CharString>
          <CharString index="62">
            0 12 0 callgsubr
            -121 vlineto
            -51 return
          </CharString>
          <CharString index="63">
            -69 -24 31 42 hvcurveto
            130 vlineto
            174 -142 rlineto
            -50 vlineto
            -3 -12 -27 -8 -42 hhcurveto
            311 vmoveto
            -14 callsubr
            endchar
          </CharString>
          <CharString index="64">
            19 hlineto
            63 16 -25 -38 hvcurveto
            -31 vlineto
            -49 -36 -19 -67 -51 -47 6 11 -38 vhcurveto
            -69 vlineto
            return
          </CharString>
          <CharString index="65">
            -79 38 -50 94 2 10 callsubr
            return
          </CharString>
          <CharString index="66">
            150 callgsubr
            298 69 -219 236 190 70 -190 229 219 70 vlineto
            return
          </CharString>
          <CharString index="67">
            -34 callgsubr
            24 hhcurveto
            return
          </CharString>
          <CharString index="68">
            -92 -44 -42 -83 hvcurveto
            return
          </CharString>
          <CharString index="69">
            220 callgsubr
            268 92 vlineto
            97 -268 rlineto
            87 hlineto
            -107 280 rlineto
            59 22 26 51 68 vvcurveto
            102 vlineto
            91 -54 60 -109 vhcurveto
            85 -252 rmoveto
            -56 -25 -31 -65 vhcurveto
            -86 270 86 hlineto
            64 26 -31 -55 hvcurveto
            return
          </CharString>
          <CharString index="70">
            22 1 callgsubr
            return
          </CharString>
          <CharString index="71">
            -22 25 37 -12 51 hhcurveto
            196 callsubr
            11 hvcurveto
            -80 -103 callgsubr
            -423 -62 256 286 callgsubr
            -10 -34 -8 -41 hhcurveto
            -63 172 callgsubr
            63 40 34 -8 -4 11 vhcurveto
            endchar
          </CharString>
          <CharString index="72">
            rmoveto
            -27 305 callsubr
            15 21 33 123 callgsubr
            -17 vhcurveto
            endchar
          </CharString>
          <CharString index="73">
            17 26 64 vhcurveto
            37 67 -36 hlineto
            -63 return
          </CharString>
          <CharString index="74">
            118 callsubr
            10 vhcurveto
            -80 return
          </CharString>
          <CharString index="75">
            -66 callgsubr
            110 return
          </CharString>
          <CharString index="76">
            382 91 callsubr
            -788 -62 272 vlineto
            -2 callsubr
            145 109 rlineto
            66 vlineto
            -5 -20 -36 -3 -24 -96 callsubr
            280 -97 hlineto
            4 -20 -28 5 -30 hhcurveto
            -99 109 callgsubr
            -12 -28 10 callgsubr
            29 25 -4 -4 18 vhcurveto
            return
          </CharString>
          <CharString index="77">
            -46 callgsubr
            -427 hlineto
            -5 return
          </CharString>
          <CharString index="78">
            -83 49 -49 102 39 28 7 6 17 vhcurveto
            451 vmoveto
            -386 vlineto
            -5 -14 -28 -7 -36 hhcurveto
            -63 -22 29 38 hvcurveto
            331 vlineto
            endchar
          </CharString>
          <CharString index="79">
            -169 vlineto
            -83 44 -43 92 93 43 43 83 vhcurveto
            50 callgsubr
          </CharString>
          <CharString index="80">
            hhcurveto
            -5 callsubr
            hvcurveto
            -10 callsubr
            return
          </CharString>
          <CharString index="81">
            -24 callsubr
            185 return
          </CharString>
          <CharString index="82">
            -7 callsubr
            9 24 0 vhcurveto
            68 62 -241 -62 100 hlineto
            0 -8 81 callgsubr
            return
          </CharString>
          <CharString index="83">
            151 callsubr
            100 40 43 80 vhcurveto
            return
          </CharString>
          <CharString index="84">
            14 -29 -37 vhcurveto
            -140 72 return
          </CharString>
          <CharString index="85">
            69 callsubr
            endchar
          </CharString>
          <CharString index="86">
            -76 -103 callgsubr
            -167 -511 vlineto
            -7 -27 -32 -6 -45 54 callgsubr
            11 24 0 vhcurveto
            94 62 return
          </CharString>
          <CharString index="87">
            -35 -27 -26 -41 -41 vvcurveto
            -45 29 -25 54 vhcurveto
            16 50 -12 hlineto
            -24 -12 10 26 34 18 35 30 24 hvcurveto
            return
          </CharString>
          <CharString index="88">
            -73 callgsubr
            -67 120 rmoveto
            241 callsubr
            -102 -38 -46 -83 vhcurveto
            25 -360 146 callsubr
            346 62 -688 -3 callsubr
            endchar
          </CharString>
          <CharString index="89">
            rmoveto
            339 150 -339 vlineto
            -38 -12 -30 -63 -63 -12 30 38 vhcurveto
            return
          </CharString>
          <CharString index="90">
            34 11 19 26 25 -11 20 -34 -34 -11 -20 -25 14 callgsubr
            return
          </CharString>
          <CharString index="91">
            -94 92 674 rmoveto
            -23 -103 rlineto
            -64 -69 62 -377 hlineto
            -83 43 -47 92 34 35 9 2 7 vhcurveto
            71 vlineto
            -2 -8 -29 -9 -30 hhcurveto
            -43 -23 18 45 hvcurveto
            373 124 69 -124 103 vlineto
            return
          </CharString>
          <CharString index="92">
            124 62 389 274 callsubr
            -86 39 -44 94 -13 326 callgsubr
            70 141 rlineto
            0 4 vlineto
            71 -141 247 callgsubr
            91 14 35 44 88 vvcurveto
            94 callgsubr
            -563 -62 98 211 callsubr
            72 hmoveto
            -78 callgsubr
            return
          </CharString>
          <CharString index="93">
            41 -17 callgsubr
            57 hhcurveto
            return
          </CharString>
          <CharString index="94">
            37 75 hvcurveto
            66 vlineto
            80 103 callgsubr
            return
          </CharString>
          <CharString index="95">
            67 hlineto
            -10 callgsubr
            return
          </CharString>
          <CharString index="96">
            160 -51 callgsubr
            return
          </CharString>
          <CharString index="97">
            -82 callsubr
            20 29 57 26 24 111 callsubr
            return
          </CharString>
          <CharString index="98">
            211 callsubr
            72 hmoveto
            -56 callgsubr
          </CharString>
          <CharString index="99">
            67 vlineto
            -9 -32 -40 callsubr
            return
          </CharString>
          <CharString index="100">
            vlineto
            38 24 callsubr
            63 vlineto
            43 return
          </CharString>
          <CharString index="101">
            -37 273 callgsubr
            99 vhcurveto
            -14 callgsubr
          </CharString>
          <CharString index="102">
            25 19 2 3 16 return
          </CharString>
          <CharString index="103">
            -70 callsubr
            70 258 callsubr
            return
          </CharString>
          <CharString index="104">
            -62 272 hlineto
            13 callgsubr
            return
          </CharString>
          <CharString index="105">
            -35 callgsubr
            -121 81 -50 121 -6 vhcurveto
            -139 -91 rlineto
            -4 vlineto
            99 -11 return
          </CharString>
          <CharString index="106">
            -33 -8 -47 hhcurveto
            -71 -39 31 57 hvcurveto
            return
          </CharString>
          <CharString index="107">
            -40 -13 callsubr
            return
          </CharString>
          <CharString index="108">
            67 47 138 rmoveto
            -95 53 -55 145 55 69 8 9 39 vhcurveto
            63 vlineto
            -9 -48 -56 -7 -56 hhcurveto
            -106 -23 34 55 hvcurveto
            53 vlineto
            39 20 24 63 vhcurveto
            88 hlineto
            -117 -139 70 -3 103 123 rlineto
            7 -10 2 -15 -18 vvcurveto
            -32 67 36 vlineto
            79 -36 38 -91 vhcurveto
            -98 218 callgsubr
            177 146 108 62 -506 -62 326 -84 -105 hlineto
            -100 -46 -36 -81 hvcurveto
            -12 vlineto
            -46 17 -30 34 -16 vhcurveto
            -35 -17 -18 -29 -46 vvcurveto
            return
          </CharString>
          <CharString index="109">
            23 0 vhcurveto
            return
          </CharString>
          <CharString index="110">
            -4 callsubr
            123 122 callsubr
            71 -69 callsubr
            62 return
          </CharString>
          <CharString index="111">
            -33 hlineto
            -131 -79 -48 -114 -1 hvcurveto
            -4 72 vlineto
            71 45 28 97 vhcurveto
            25 hlineto
            116 37 -41 -86 hvcurveto
            -36 117 callsubr
            return
          </CharString>
          <CharString index="112">
            66 674 rmoveto
            -674 return
          </CharString>
          <CharString index="113">
            rmoveto
            -6 68 7 vlineto
            77 -33 52 -106 -28 -29 -3 -6 -21 vhcurveto
            95 224 62 -601 -62 306 -427 vlineto
            -4 -15 -24 -5 -29 hhcurveto
            -60 -18 26 39 hvcurveto
            155 64 callgsubr
            -96 114 callgsubr
            -151 vlineto
            -76 39 -43 79 -7 vhcurveto
            -140 -145 rlineto
            90 hlineto
            142 153 rlineto
            2 2 1 1 hhcurveto
            -108 72 212 callsubr
            22 27 2 25 316 callsubr
            endchar
          </CharString>
          <CharString index="114">
            60 callsubr
            -8 23 0 vhcurveto
            130 hlineto
            return
          </CharString>
          <CharString index="115">
            127 hlineto
            83 -43 47 -96 -97 -42 -47 -83 -24 5 -27 262 callsubr
            10 27 57 56 11 -26 -39 vhcurveto
            -125 -70 vlineto
            -100 -40 -42 -80 hvcurveto
            -94 vlineto
            -80 40 -44 100 99 41 44 80 vhcurveto
            153 return
          </CharString>
          <CharString index="116">
            37 callgsubr
            -20 5 -25 0 vhcurveto
            70 hlineto
            0 -5 return
          </CharString>
          <CharString index="117">
            vhcurveto
            -12 callgsubr
            return
          </CharString>
          <CharString index="118">
            64 vmoveto
            28 callgsubr
          </CharString>
          <CharString index="119">
            37 callgsubr
            -16 4 -29 0 vhcurveto
            70 hlineto
            0 -4 29 18 125 callsubr
            76 return
          </CharString>
          <CharString index="120">
            -100 -46 -38 -81 hvcurveto
            -15 vlineto
            -46 17 -29 34 -16 vhcurveto
            -35 -17 -18 -31 -46 vvcurveto
            return
          </CharString>
          <CharString index="121">
            321 callsubr
            -9 349 callsubr
            -62 vlineto
            1 7 8 295 callsubr
            -32 hlineto
            -105 159 rlineto
            49 -34 -30 21 191 callgsubr
            -10 hvcurveto
            return
          </CharString>
          <CharString index="122">
            24 48 hvcurveto
            138 vlineto
            30 callgsubr
            -140 vlineto
            -86 return
          </CharString>
          <CharString index="123">
            -83 44 -43 92 return
          </CharString>
          <CharString index="124">
            hhcurveto
            45 40 31 callgsubr
            return
          </CharString>
          <CharString index="125">
            227 283 19 callsubr
            -666 -62 86 -284 vlineto
            -78 44 -48 90 -6 vhcurveto
            -150 -190 rlineto
            84 hlineto
            154 200 rlineto
            1 hlineto
            58 226 callgsubr
            288 151 vlineto
            return
          </CharString>
          <CharString index="126">
            hmoveto
            71 423 hlineto
            0 30 10 38 59 16 -26 -38 vhcurveto
            -173 vlineto
            -41 -16 -25 -62 2 vhcurveto
            -67 vlineto
            2 9 -1 7 hhcurveto
            91 42 48 80 hvcurveto
            178 vlineto
            79 -46 51 -96 -40 -34 -11 0 vhcurveto
            101 286 62 return
          </CharString>
          <CharString index="127">
            600 633 252 rmoveto
            -83 38 297 callsubr
            96 62 -1039 -62 522 vlineto
            -45 callsubr
            -19 -31 -61 -21 -23 3 3 -18 vhcurveto
            153 vlineto
            7 -49 -51 6 -49 hhcurveto
            -114 -52 -56 -83 hvcurveto
            -227 -49 callsubr
            222 267 callgsubr
            21 30 -2 -2 28 vhcurveto
            -244 vlineto
            return
          </CharString>
          <CharString index="128">
            -67 callsubr
            -79 141 rmoveto
            182 callgsubr
            return
          </CharString>
          <CharString index="129">
            -59 -11 23 38 vhcurveto
            122 61 callsubr
            70 63 271 callgsubr
            return
          </CharString>
          <CharString index="130">
            -103 callsubr
            -78 141 rmoveto
            218 callsubr
            return
          </CharString>
          <CharString index="131">
            -34 callsubr
            1 -13 25 39 vvcurveto
            return
          </CharString>
          <CharString index="132">
            rmoveto
            -14 callsubr
            -311 vmoveto
            -69 -24 31 42 hvcurveto
            130 vlineto
            174 -142 rlineto
            -50 vlineto
            -3 -12 -27 -8 -42 hhcurveto
            endchar
          </CharString>
          <CharString index="133">
            hvcurveto
            -284 -62 288 -86 -74 hlineto
            -100 195 callgsubr
            -7 vlineto
            -83 49 -40 99 vhcurveto
            23 hlineto
            63 16 -26 -37 hvcurveto
            -35 vlineto
            -42 -25 -22 -64 -34 -27 3 4 -22 vhcurveto
            74 -69 -237 69 99 vlineto
            -5 20 32 -4 37 hhcurveto
            111 44 43 85 hvcurveto
            38 vlineto
            83 -48 42 -103 vhcurveto
            -23 hlineto
            -60 -16 24 37 hvcurveto
            5 vlineto
            37 16 23 60 vhcurveto
            146 150 92 62 hlineto
            endchar
          </CharString>
          <CharString index="134">
            119 callgsubr
            74 callgsubr
            return
          </CharString>
          <CharString index="135">
            8 39 590 rmoveto
            11 31 35 6 49 hhcurveto
            82 21 -32 -47 hvcurveto
            -63 vlineto
            -55 -20 -36 -67 vhcurveto
            -69 -72 69 hlineto
            67 23 -34 -55 hvcurveto
            -66 vlineto
            -49 -23 -31 -82 -52 -46 11 12 -31 vhcurveto
            -76 vlineto
            -10 25 47 -9 58 hhcurveto
            127 56 57 90 hvcurveto
            79 vlineto
            64 -26 39 -51 15 vhcurveto
            50 20 23 41 63 vvcurveto
            69 vlineto
            90 -54 57 -127 -53 -36 -6 -8 -26 vhcurveto
            endchar
          </CharString>
          <CharString index="136">
            -60 -18 26 40 hvcurveto
            146 64 callgsubr
            -96 114 callgsubr
            return
          </CharString>
          <CharString index="137">
            rmoveto
            43 -8 -85 callsubr
            return
          </CharString>
          <CharString index="138">
            57 41 107 hvcurveto
            57 vlineto
            86 -31 49 -95 return
          </CharString>
          <CharString index="139">
            49 56 150 rmoveto
            -91 49 -69 119 119 49 69 91 vhcurveto
            128 vlineto
            94 -57 51 -96 -42 -35 -7 -13 -27 vhcurveto
            110 vlineto
            50 24 43 82 51 43 -8 -12 32 vhcurveto
            75 vlineto
            8 -26 -44 10 -57 hhcurveto
            -132 -52 -72 -89 hvcurveto
            257 -367 rmoveto
            -54 -21 -37 -68 -68 -21 37 54 vhcurveto
            180 vlineto
            12 21 36 10 37 hhcurveto
            54 30 -22 -57 hvcurveto
            endchar
          </CharString>
          <CharString index="140">
            46 callgsubr
            170 256 callsubr
            return
          </CharString>
          <CharString index="141">
            79 callgsubr
            -46 vlineto
            -109 75 -43 115 57 71 17 16 40 vhcurveto
            -21 36 45 265 callsubr
            82 callgsubr
            -490 -62 vlineto
            endchar
          </CharString>
          <CharString index="142">
            273 callsubr
            66 vlineto
            -10 callgsubr
            return
          </CharString>
          <CharString index="143">
            -39 -16 -27 -52 -9 -14 1 1 -6 vhcurveto
            -68 vlineto
            -2 6 21 -1 11 hhcurveto
            88 43 53 78 hvcurveto
            return
          </CharString>
          <CharString index="144">
            -101 257 574 rmoveto
            -55 -20 -19 -27 -40 hvcurveto
            43 -76 -571 79 456 vlineto
            29 42 20 14 42 hhcurveto
            32 75 hlineto
            return
          </CharString>
          <CharString index="145">
            220 callsubr
            20 -12 -28 18 hvcurveto
            83 -127 rlineto
            return
          </CharString>
          <CharString index="146">
            -83 44 -51 103 103 44 51 83 vhcurveto
            return
          </CharString>
          <CharString index="147">
            vvcurveto
            38 11 27 56 57 10 -26 -39 vhcurveto
            return
          </CharString>
          <CharString index="148">
            hhcurveto
            60 18 -27 -39 294 callgsubr
            -38 return
          </CharString>
          <CharString index="149">
            26 callgsubr
            139 -83 callgsubr
            return
          </CharString>
          <CharString index="150">
            -48 rmoveto
            -4 91 vlineto
            133 115 49 46 28 39 12 20 rlinecurve
            74 vlineto
            -12 410 rmoveto
            -472 -62 472 hlineto
            1 -108 rmoveto
            -351 -65 109 hlineto
            0 9 0 callgsubr
            -102 vlineto
            -46 -25 -28 -63 -36 -27 4 7 -28 vhcurveto
            -66 vlineto
            -7 26 24 -5 42 111 callgsubr
            106 256 callsubr
            169 hlineto
            return
          </CharString>
          <CharString index="151">
            -1 33 674 rmoveto
            -69 241 vlineto
            -247 -537 rlineto
            -68 328 68 -245 vlineto
            248 539 rlineto
            67 vlineto
            return
          </CharString>
          <CharString index="152">
            -7 callgsubr
            -446 -62 284 -90 -52 hlineto
            332 callgsubr
            -223 vlineto
            return
          </CharString>
          <CharString index="153">
            -26 callsubr
            123 vlineto
            endchar
          </CharString>
          <CharString index="154">
            39 15 31 60 60 11 -31 -39 vhcurveto
            -226 vlineto
            -40 -11 -31 -60 -60 -15 31 40 vhcurveto
            return
          </CharString>
          <CharString index="155">
            -88 callsubr
            -44 1 return
          </CharString>
          <CharString index="156">
            rmoveto
            239 62 -610 73 callgsubr
            426 vlineto
            7 23 34 2 25 hhcurveto
            61 14 -26 -41 hvcurveto
            -5 67 7 vlineto
            77 -32 52 -106 -28 -36 -3 -6 -22 vhcurveto
            -70 -300 rmoveto
            28 callgsubr
          </CharString>
          <CharString index="157">
            rmoveto
            -72 -17 32 43 hvcurveto
            110 vlineto
            151 -172 rlineto
            -8 -14 -20 -5 -28 hhcurveto
            89 75 rmoveto
            -6 0 -5 -1 -5 vhcurveto
            -170 192 rlineto
            171 hlineto
            endchar
          </CharString>
          <CharString index="158">
            hlineto
            50 -14 -40 22 -66 hhcurveto
            -184 hlineto
            -39 callsubr
            -142 41 callgsubr
            133 vlineto
            41 -10 27 -1 2 vhcurveto
            57 hlineto
            return
          </CharString>
          <CharString index="159">
            vlineto
            130 callgsubr
            return
          </CharString>
          <CharString index="160">
            18 53 585 rmoveto
            11 32 44 10 49 hhcurveto
            85 17 -31 -46 hvcurveto
            -45 vlineto
            -51 -11 -27 -40 -28 vhcurveto
            -82 -59 rlineto
            -61 -42 -44 -40 -90 vvcurveto
            -147 318 72 -238 70 vlineto
            61 20 21 61 43 vhcurveto
            79 56 57 39 19 41 1 74 rlinecurve
            57 vlineto
            90 -53 55 -127 -54 -48 -10 -8 -24 vhcurveto
            endchar
          </CharString>
          <CharString index="161">
            91 246 89 rmoveto
            61 63 31 36 5 11 rrcurveto
            1 hlineto
            -2 -10 -3 -43 -72 vvcurveto
            -74 69 -101 callsubr
            -529 -62 150 -228 vlineto
            36 callsubr
            232 140 -302 vlineto
            -264 -288 rlineto
            90 hlineto
            return
          </CharString>
          <CharString index="162">
            hhcurveto
            -50 -30 -79 callgsubr
            -191 vlineto
            191 callsubr
            vhcurveto
            8 49 1 4 hhcurveto
            65 vlineto
            -5 -47 -1 -7 hhcurveto
            -81 -18 40 53 hvcurveto
            188 vlineto
            39 13 29 59 60 12 -29 -39 vhcurveto
            -138 72 138 vlineto
            41 12 27 53 192 callgsubr
            return
          </CharString>
          <CharString index="163">
            -94 callgsubr
            -431 -244 63 callgsubr
            501 -337 151 callgsubr
            -462 -62 295 219 callgsubr
            return
          </CharString>
          <CharString index="164">
            rmoveto
            -451 vlineto
            -106 callsubr
            return
          </CharString>
          <CharString index="165">
            rmoveto
            -4 -10 -34 -8 -40 316 callgsubr
            63 41 33 -8 -4 11 vhcurveto
            return
          </CharString>
          <CharString index="166">
            4 -11 230 callsubr
            -169 vlineto
            return
          </CharString>
          <CharString index="167">
            337 rmoveto
            -125 117 callgsubr
            return
          </CharString>
          <CharString index="168">
            vlineto
            39 11 -37 callsubr
            return
          </CharString>
          <CharString index="169">
            vlineto
            -175 77 callgsubr
            return
          </CharString>
          <CharString index="170">
            95 callgsubr
            90 61 callsubr
            return
          </CharString>
          <CharString index="171">
            rmoveto
            -121 vlineto
            8 -19 -24 4 -30 hhcurveto
            -25 -32 -3 -6 -20 hvcurveto
            118 vlineto
            return
          </CharString>
          <CharString index="172">
            0 8 -38 callgsubr
            return
          </CharString>
          <CharString index="173">
            -1 -19 24 41 vvcurveto
            return
          </CharString>
          <CharString index="174">
            34 60 674 rmoveto
            -355 vlineto
            7 77 26 4 41 hhcurveto
            69 19 -28 -56 hvcurveto
            -100 vlineto
            -48 -26 -31 -82 -48 -43 12 13 -37 vhcurveto
            -76 vlineto
            -12 32 41 -9 57 hhcurveto
            127 57 57 89 hvcurveto
            112 vlineto
            91 -46 59 -106 -26 -25 -2 -3 -29 vhcurveto
            203 216 73 vlineto
            endchar
          </CharString>
          <CharString index="175">
            277 callgsubr
            -277 -288 rlineto
            94 hlineto
            120 125 41 44 21 27 5 11 rlinecurve
            endchar
          </CharString>
          <CharString index="176">
            -95 290 callsubr
            49 41 7 9 30 vhcurveto
            -25 callgsubr
            return
          </CharString>
          <CharString index="177">
            210 192 rmoveto
            -64 -23 28 39 hvcurveto
            331 return
          </CharString>
          <CharString index="178">
            -6 -19 -42 -7 -42 hhcurveto
            -73 -44 21 67 hvcurveto
            27 vlineto
            39 17 26 64 vhcurveto
            38 67 -37 123 callsubr
            64 92 callgsubr
            return
          </CharString>
          <CharString index="179">
            -76 39 -43 80 -7 vhcurveto
            -141 -146 rlineto
            90 hlineto
            144 154 rlineto
            1 1 1 1 hhcurveto
            return
          </CharString>
          <CharString index="180">
            rmoveto
            -83 39 -45 99 34 23 4 5 19 162 callsubr
            return
          </CharString>
          <CharString index="181">
            68 vlineto
            -9 -32 -47 -9 return
          </CharString>
          <CharString index="182">
            67 vlineto
            -9 -33 -46 -8 -50 hhcurveto
            -69 -38 26 56 hvcurveto
            81 vlineto
            38 16 26 331 callsubr
            58 65 hvcurveto
            185 86 62 -498 -62 vlineto
            244 -249 rmoveto
            -62 -19 29 38 hvcurveto
            118 vlineto
            154 -170 rlineto
            -10 -13 -18 -5 -22 hhcurveto
            endchar
          </CharString>
          <CharString index="183">
            rmoveto
            132 callsubr
            -103 callgsubr
            -607 -62 440 -108 -318 145 callgsubr
            endchar
          </CharString>
          <CharString index="184">
            161 -190 vlineto
            -38 -12 -26 -50 -5 -7 268 callgsubr
            -67 vlineto
            -1 7 8 0 8 hhcurveto
            93 35 53 76 hvcurveto
            192 84 62 return
          </CharString>
          <CharString index="185">
            -85 -84 hlineto
            13 callsubr
            return
          </CharString>
          <CharString index="186">
            0 9 -24 257 callgsubr
            -25 -29 -63 -36 -27 5 7 -28 vhcurveto
            -67 vlineto
            -7 26 24 -4 42 111 callgsubr
            return
          </CharString>
          <CharString index="187">
            30 10 17 23 22 -10 17 -30 -29 -10 -17 -22 -23 10 -17 29 hvcurveto
            return
          </CharString>
          <CharString index="188">
            -62 95 -83 callgsubr
            -95 return
          </CharString>
          <CharString index="189">
            rmoveto
            270 callgsubr
            24 23 293 callsubr
            46 -43 96 248 callgsubr
            71 429 vlineto
            5 19 28 3 24 hhcurveto
            60 10 -27 -39 hvcurveto
            return
          </CharString>
          <CharString index="190">
            vlineto
            174 callsubr
          </CharString>
          <CharString index="191">
            7 125 363 45 callsubr
            69 callsubr
            return
          </CharString>
          <CharString index="192">
            2 230 callgsubr
            -15 -22 -51 -52 -14 23 38 vhcurveto
            167 vlineto
            return
          </CharString>
          <CharString index="193">
            -175 66 566 rmoveto
            -566 79 566 vlineto
            return
          </CharString>
          <CharString index="194">
            vlineto
            46 callsubr
          </CharString>
          <CharString index="195">
            -201 119 callsubr
            -131 -89 callgsubr
            140 vlineto
            39 15 23 51 vhcurveto
            return
          </CharString>
          <CharString index="196">
            -120 vlineto
            -90 38 -38 102 return
          </CharString>
          <CharString index="197">
            -20 28 45 hvcurveto
            128 vlineto
            return
          </CharString>
          <CharString index="198">
            252 73 callsubr
            return
          </CharString>
          <CharString index="199">
            rmoveto
            0 7 0 callgsubr
            return
          </CharString>
          <CharString index="200">
            186 vlineto
            111 49 63 91 hvcurveto
            369 vlineto
            90 -54 61 -109 vhcurveto
            84 -517 rmoveto
            -52 -23 -36 -67 vhcurveto
            -98 return
          </CharString>
          <CharString index="201">
            vlineto
            38 10 27 56 56 11 -26 -39 vhcurveto
            endchar
          </CharString>
          <CharString index="202">
            140 vlineto
            44 return
          </CharString>
          <CharString index="203">
            62 135 119 rmoveto
            87 vlineto
            44 17 31 72 72 17 -31 -44 vhcurveto
            -87 vlineto
            -43 -17 -32 -72 -72 -17 32 43 vhcurveto
            -161 471 rmoveto
            90 -176 hlineto
            -47 17 -35 34 -22 vhcurveto
            -34 -22 -17 -35 -45 vvcurveto
            -90 vlineto
            return
          </CharString>
          <CharString index="204">
            rmoveto
            -38 -10 -23 -60 -59 -11 23 38 vhcurveto
            49 61 callsubr
            return
          </CharString>
          <CharString index="205">
            vlineto
            -49 callgsubr
            return
          </CharString>
          <CharString index="206">
            423 hlineto
            0 31 10 37 return
          </CharString>
          <CharString index="207">
            -12 1 -11 hhcurveto
            return
          </CharString>
          <CharString index="208">
            107 callgsubr
            endchar
          </CharString>
          <CharString index="209">
            35 12 19 29 30 -12 19 -35 -36 -12 -19 -30 -29 319 callsubr
          </CharString>
          <CharString index="210">
            195 callsubr
            -19 return
          </CharString>
          <CharString index="211">
            rmoveto
            -48 -33 -24 -34 -28 vhcurveto
            -34 28 -32 24 48 vvcurveto
            41 94 callsubr
          </CharString>
          <CharString index="212">
            rmoveto
            43 -7 -85 callsubr
            -44 hhcurveto
            -92 return
          </CharString>
          <CharString index="213">
            rmoveto
            -148 hlineto
            73 346 rlineto
            return
          </CharString>
          <CharString index="214">
            rmoveto
            -68 -24 31 42 hvcurveto
            108 vlineto
            174 -141 rlineto
            -29 vlineto
            -4 -12 -27 -7 -43 hhcurveto
            290 vmoveto
            42 -17 callgsubr
            56 hhcurveto
            endchar
          </CharString>
          <CharString index="215">
            -31 9 674 rmoveto
            -70 130 -604 79 604 130 70 vlineto
            return
          </CharString>
          <CharString index="216">
            vlineto
            83 -41 46 -95 -95 -42 -46 -83 vhcurveto
            return
          </CharString>
          <CharString index="217">
            -69 119 119 54 69 91 vhcurveto
            return
          </CharString>
          <CharString index="218">
            -5 -8 17 vhcurveto
            -401 return
          </CharString>
          <CharString index="219">
            -116 vlineto
            -46 16 -32 30 -20 vhcurveto
            -27 -19 -16 -30 -43 vvcurveto
            -43 vlineto
            -86 48 -46 105 105 47 48 85 vhcurveto
            267 -70 -88 vlineto
            -3 -14 -32 -7 -35 hhcurveto
            -64 -21 26 39 hvcurveto
            endchar
          </CharString>
          <CharString index="220">
            rmoveto
            -50 226 50 vlineto
            endchar
          </CharString>
          <CharString index="221">
            523 -103 callsubr
            -78 141 rmoveto
            -23 callgsubr
            return
          </CharString>
          <CharString index="222">
            204 131 131 callsubr
            return
          </CharString>
          <CharString index="223">
            11 -34 110 callgsubr
            return
          </CharString>
          <CharString index="224">
            -95 81 callsubr
            return
          </CharString>
          <CharString index="225">
            335 callsubr
            196 callsubr
            return
          </CharString>
          <CharString index="226">
            rmoveto
            164 callsubr
            return
          </CharString>
          <CharString index="227">
            26 -11 19 -34 return
          </CharString>
          <CharString index="228">
            1 8 10 1 8 hhcurveto
            31 19 -13 -27 19 hvcurveto
            84 -127 rlineto
            return
          </CharString>
          <CharString index="229">
            -158 vlineto
            -432 vmoveto
            return
          </CharString>
          <CharString index="230">
            hlineto
            -63 -13 26 38 hvcurveto
            return
          </CharString>
          <CharString index="231">
            rmoveto
            305 callgsubr
            94 62 vlineto
            -264 -129 rmoveto
            83 -48 51 -103 -103 -48 -51 -83 return
          </CharString>
          <CharString index="232">
            8 callgsubr
            -93 -104 hlineto
            -131 return
          </CharString>
          <CharString index="233">
            79 callgsubr
            -26 vlineto
            -102 72 -46 111 vhcurveto
            1 hlineto
            -144 -139 rlineto
            97 hlineto
            153 152 rlineto
            2 -103 82 callgsubr
            -167 hlineto
            endchar
          </CharString>
          <CharString index="234">
            590 94 62 return
          </CharString>
          <CharString index="235">
            rmoveto
            167 -195 rlineto
            -20 -12 -23 -11 -43 hhcurveto
            -69 -20 28 45 hvcurveto
            177 17 rmoveto
            -165 192 rlineto
            18 13 23 11 41 hhcurveto
            66 22 -30 -44 hvcurveto
            endchar
          </CharString>
          <CharString index="236">
            164 callgsubr
            59 44 10 8 26 vhcurveto
            return
          </CharString>
          <CharString index="237">
            rmoveto
            162 callgsubr
            return
          </CharString>
          <CharString index="238">
            rmoveto
            -70 90 callsubr
            return
          </CharString>
          <CharString index="239">
            44 -8 149 callsubr
            return
          </CharString>
          <CharString index="240">
            103 callsubr
            hvcurveto
            return
          </CharString>
          <CharString index="241">
            hvcurveto
            167 vlineto
            return
          </CharString>
          <CharString index="242">
            238 callgsubr
            hlineto
            -39 callsubr
            return
          </CharString>
          <CharString index="243">
            -23 callgsubr
            -58 -26 -14 return
          </CharString>
          <CharString index="244">
            vlineto
            -174 152 callsubr
            return
          </CharString>
          <CharString index="245">
            346 callsubr
            57 hhcurveto
            23 18 -4 0 hvcurveto
            63 vlineto
            0 -20 269 callsubr
            return
          </CharString>
          <CharString index="246">
            rmoveto
            -39 -10 -22 -59 -60 -10 23 38 vhcurveto
            122 vlineto
            39 10 22 60 vhcurveto
            69 hlineto
            return
          </CharString>
          <CharString index="247">
            47 49 97 hvcurveto
            122 vlineto
            44 -11 2 callsubr
            280 -97 hlineto
            4 -20 -28 5 return
          </CharString>
          <CharString index="248">
            -26 11 -19 34 return
          </CharString>
          <CharString index="249">
            hhcurveto
            -64 -26 281 callsubr
            65 vhcurveto
            9 8 -1 10 hhcurveto
            63 vlineto
            1 -11 -12 0 -10 hhcurveto
            -104 221 callsubr
            -169 vlineto
            -85 return
          </CharString>
          <CharString index="250">
            vvcurveto
            156 callgsubr
          </CharString>
          <CharString index="251">
            67 vlineto
            -9 -32 return
          </CharString>
          <CharString index="252">
            -17 -12 -10 -20 -38 vvcurveto
            -131 vlineto
            -46 10 -34 42 223 callgsubr
            return
          </CharString>
          <CharString index="253">
            rmoveto
            -92 callsubr
            return
          </CharString>
          <CharString index="254">
            196 634 -196 hlineto
            236 -185 rmoveto
            196 185 -196 hlineto
            return
          </CharString>
          <CharString index="255">
            6 21 31 2 22 hhcurveto
            61 15 -25 -41 hvcurveto
            return
          </CharString>
          <CharString index="256">
            23 0 250 callsubr
            return
          </CharString>
          <CharString index="257">
            0 vhcurveto
            72 hlineto
            0 return
          </CharString>
          <CharString index="258">
            -80 41 -43 99 return
          </CharString>
          <CharString index="259">
            137 -32 callsubr
            return
          </CharString>
          <CharString index="260">
            -75 -45 -43 -70 hvcurveto
            -12 vlineto
            -39 9 -29 36 -14 vhcurveto
            -37 -13 -13 -31 -40 vvcurveto
            -12 vlineto
            -85 54 -42 115 108 60 34 116 2 vhcurveto
            return
          </CharString>
          <CharString index="261">
            rlineto
            50 -33 -25 17 184 callgsubr
            -62 vlineto
            252 callsubr
            0 return
          </CharString>
          <CharString index="262">
            -8 vlineto
            -83 48 -40 99 vhcurveto
            -1 63 rmoveto
            -59 1 -15 23 37 vvcurveto
            6 vlineto
            37 16 22 60 vhcurveto
            146 150 121 -276 hlineto
            endchar
          </CharString>
          <CharString index="263">
            106 callsubr
            endchar
          </CharString>
          <CharString index="264">
            -43 callsubr
            -10 43 42 -5 51 133 callgsubr
            return
          </CharString>
          <CharString index="265">
            rmoveto
            33 12 20 25 26 -12 19 -33 -34 -11 -19 -26 -25 11 -20 34 hvcurveto
            return
          </CharString>
          <CharString index="266">
            rmoveto
            90 callgsubr
            -61 -16 24 37 hvcurveto
            return
          </CharString>
          <CharString index="267">
            306 callgsubr
            -131 87 -42 return
          </CharString>
          <CharString index="268">
            -53 -5 vhcurveto
            28 -14 -31 18 -58 hhcurveto
            return
          </CharString>
          <CharString index="269">
            vhcurveto
            -133 67 callgsubr
            return
          </CharString>
          <CharString index="270">
            92 callgsubr
            68 62 return
          </CharString>
          <CharString index="271">
            1 -47 callgsubr
            return
          </CharString>
          <CharString index="272">
            vhcurveto
            70 hlineto
            146 288 callsubr
            233 hlineto
            11 6 -27 -42 hvcurveto
            -64 vlineto
            -48 -18 -18 161 callsubr
            return
          </CharString>
          <CharString index="273">
            hhcurveto
            -205 hlineto
            -39 callsubr
            -137 41 callgsubr
            142 vlineto
            42 -10 12 -1 2 vhcurveto
            78 hlineto
            return
          </CharString>
          <CharString index="274">
            -409 214 callgsubr
            57 39 16 30 23 hvcurveto
            return
          </CharString>
          <CharString index="275">
            -60 -18 327 callsubr
            18 26 60 8 10 -1 -1 6 vhcurveto
            63 vlineto
            2 -6 -13 1 -11 hhcurveto
            -95 114 callgsubr
            return
          </CharString>
          <CharString index="276">
            hlineto
            174 callsubr
          </CharString>
          <CharString index="277">
            33 12 19 26 25 -12 20 -33 -34 -11 -20 -25 14 callgsubr
            return
          </CharString>
          <CharString index="278">
            hhcurveto
            100 40 43 80 hvcurveto
            221 callgsubr
            endchar
          </CharString>
          <CharString index="279">
            34 71 hvcurveto
            1 vlineto
            79 49 return
          </CharString>
          <CharString index="280">
            vlineto
            -85 46 -48 112 74 44 25 42 21 vhcurveto
            -36 37 57 -13 61 17 callsubr
            return
          </CharString>
          <CharString index="281">
            -49 callgsubr
            11 callsubr
          </CharString>
          <CharString index="282">
            -175 66 723 rmoveto
            -723 79 723 vlineto
            return
          </CharString>
          <CharString index="283">
            -158 248 callsubr
            -126 vlineto
            return
          </CharString>
          <CharString index="284">
            150 callsubr
            -4 return
          </CharString>
          <CharString index="285">
            hlineto
            0 -9 -28 -54 vvcurveto
            return
          </CharString>
          <CharString index="286">
            hhcurveto
            39 28 7 6 17 hvcurveto
            451 vmoveto
            -386 vlineto
            -5 -14 -28 -7 -36 hhcurveto
            -63 -22 29 38 hvcurveto
            331 vlineto
            endchar
          </CharString>
          <CharString index="287">
            -105 162 rlineto
            50 -33 -32 17 253 callsubr
            return
          </CharString>
          <CharString index="288">
            vlineto
            -49 -23 -12 -68 vhcurveto
            -37 -57 hlineto
            -131 83 -42 109 42 return
          </CharString>
          <CharString index="289">
            -124 373 230 rmoveto
            -250 282 rlineto
            78 259 62 -408 136 callgsubr
            return
          </CharString>
          <CharString index="290">
            vlineto
            65 callsubr
            return
          </CharString>
          <CharString index="291">
            149 callgsubr
            -459 202 callgsubr
            return
          </CharString>
          <CharString index="292">
            331 callgsubr
            42 15 160 callsubr
            108 48 41 8 7 25 vhcurveto
            -100 return
          </CharString>
          <CharString index="293">
            158 123 122 callsubr
            67 callgsubr
            return
          </CharString>
          <CharString index="294">
            -34 5 callsubr
            333 callsubr
            606 vlineto
            return
          </CharString>
          <CharString index="295">
            232 callgsubr
            hlineto
            -101 195 callgsubr
            return
          </CharString>
          <CharString index="296">
            219 callsubr
            vlineto
            return
          </CharString>
          <CharString index="297">
            26 39 hvcurveto
            320 callgsubr
            return
          </CharString>
          <CharString index="298">
            -99 50 -57 119 return
          </CharString>
          <CharString index="299">
            vlineto
            39 16 25 return
          </CharString>
          <CharString index="300">
            vlineto
            -39 -21 -26 -63 -25 -24 2 7 -23 vhcurveto
            68 -69 -221 69 88 vlineto
            -6 22 25 -3 32 hhcurveto
            103 47 return
          </CharString>
          <CharString index="301">
            216 callsubr
            endchar
          </CharString>
          <CharString index="302">
            -24 -29 -3 -6 return
          </CharString>
          <CharString index="303">
            43 36 8 4 return
          </CharString>
          <CharString index="304">
            vlineto
            -84 50 -38 91 -5 vhcurveto
            -148 -147 rlineto
            90 hlineto
            156 157 2 1 1 0 2 1 rlinecurve
            return
          </CharString>
          <CharString index="305">
            -158 -70 vlineto
            -68 callsubr
            123 return
          </CharString>
          <CharString index="306">
            vlineto
            -94 67 -59 109 333 callgsubr
            vhcurveto
            67 vlineto
            -11 -36 -1 callsubr
            return
          </CharString>
          <CharString index="307">
            -223 69 715 rmoveto
            -40 -205 rlineto
            41 hlineto
            19 35 46 94 41 vvcurveto
            23 -13 12 -24 vhcurveto
            endchar
          </CharString>
          <CharString index="308">
            rmoveto
            -2 -11 -3 -41 -70 vvcurveto
            -128 70 -101 callsubr
            return
          </CharString>
          <CharString index="309">
            35 82 vvcurveto
            -78 127 92 callsubr
            -52 vlineto
            return
          </CharString>
          <CharString index="310">
            -68 -27 15 50 vhcurveto
            -70 -2 hlineto
            -93 58 -33 107 107 58 return
          </CharString>
          <CharString index="311">
            363 -7 callgsubr
            return
          </CharString>
          <CharString index="312">
            90 vlineto
            45 -17 35 -33 22 vhcurveto
            33 22 17 35 47 vvcurveto
            return
          </CharString>
          <CharString index="313">
            0 -8 -23 -44 vvcurveto
            return
          </CharString>
          <CharString index="314">
            202 131 rmoveto
            -68 90 callsubr
            176 -137 rlineto
            -42 -3 -24 -22 -61 hhcurveto
            return
          </CharString>
          <CharString index="315">
            -41 hhcurveto
            -106 -45 -62 -89 hvcurveto
            -147 vlineto
            -91 50 -66 115 115 50 66 91 vhcurveto
            159 vlineto
            return
          </CharString>
          <CharString index="316">
            -105 130 674 rmoveto
            -119 -86 rlineto
            -88 vlineto
            125 90 rlineto
            -590 79 674 vlineto
            endchar
          </CharString>
          <CharString index="317">
            vlineto
            38 17 23 60 vhcurveto
            141 150 return
          </CharString>
          <CharString index="318">
            vlineto
            250 callgsubr
            return
          </CharString>
          <CharString index="319">
            431 vlineto
            7 return
          </CharString>
          <CharString index="320">
            236 267 rmoveto
            -39 -8 -28 -59 -60 -8 28 38 vhcurveto
            69 vlineto
            38 10 24 59 vhcurveto
            66 hlineto
            return
          </CharString>
          <CharString index="321">
            9 vlineto
            33 13 23 55 vhcurveto
            20 56 -18 hlineto
            -54 -11 22 33 hvcurveto
            10 vlineto
            40 18 15 38 vhcurveto
            return
          </CharString>
          <CharString index="322">
            63 callsubr
            63 vmoveto
            -70 hlineto
            return
          </CharString>
          <CharString index="323">
            228 callsubr
            vlineto
            return
          </CharString>
          <CharString index="324">
            40 callsubr
            -98 -70 vlineto
            return
          </CharString>
          <CharString index="325">
            177 callgsubr
            -22 return
          </CharString>
          <CharString index="326">
            hhcurveto
            45 40 6 5 23 hvcurveto
            -96 return
          </CharString>
          <CharString index="327">
            1 8 9 1 9 hhcurveto
            30 return
          </CharString>
          <CharString index="328">
            -49 -52 -82 hvcurveto
            return
          </CharString>
          <CharString index="329">
            vlineto
            -42 -17 -32 -72 -72 -17 33 42 vhcurveto
            161 vlineto
            40 17 24 62 vhcurveto
            132 151 return
          </CharString>
          <CharString index="330">
            -176 239 callgsubr
            30 return
          </CharString>
          <CharString index="331">
            vhcurveto
            36 hlineto
            55 17 -17 -37 hvcurveto
            -15 vlineto
            -48 -25 -14 -73 -45 -72 7 11 -52 vhcurveto
            endchar
          </CharString>
          <CharString index="332">
            vlineto
            0 9 -24 257 callgsubr
            -25 -29 return
          </CharString>
          <CharString index="333">
            -59 290 callgsubr
            11 vlineto
            37 15 22 59 vhcurveto
            return
          </CharString>
          <CharString index="334">
            87 571 rmoveto
            -57 -66 57 -505 79 505 return
          </CharString>
          <CharString index="335">
            vlineto
            -33 callsubr
            return
          </CharString>
          <CharString index="336">
            -443 hlineto
            -7 -32 -39 -5 -43 hhcurveto
            return
          </CharString>
          <CharString index="337">
            152 callgsubr
            -102 221 callsubr
            return
          </CharString>
          <CharString index="338">
            192 callsubr
            63 vhcurveto
            return
          </CharString>
          <CharString index="339">
            65 vlineto
            -2 -15 return
          </CharString>
          <CharString index="340">
            rmoveto
            185 vlineto
            186 -195 rlineto
            -41 -11 -27 -24 -57 hhcurveto
            -72 -19 34 41 hvcurveto
            return
          </CharString>
          <CharString index="341">
            -40 -18 326 callsubr
            92 vlineto
            40 18 29 65 65 18 -29 -40 vhcurveto
            return
          </CharString>
          <CharString index="342">
            -49 callgsubr
            -126 70 425 vlineto
            6 21 32 2 return
          </CharString>
          <CharString index="343">
            49 91 rmoveto
            -42 -218 rlineto
            46 hlineto
            22 42 51 100 41 vvcurveto
            23 -15 12 -23 vhcurveto
            return
          </CharString>
          <CharString index="344">
            -121 -183 121 -183 rlineto
            80 hlineto
            -122 183 122 183 rlineto
            return
          </CharString>
          <CharString index="345">
            hlineto
            252 callgsubr
            return
          </CharString>
          <CharString index="346">
            vhcurveto
            6 -51 43 -23 64 2 rrcurveto
            28 25 -12 3 12 hvcurveto
            37 -45 31 115 return
          </CharString>
          <CharString index="347">
            -400 rmoveto
            -84 callgsubr
            return
          </CharString>
          <CharString index="348">
            89 callsubr
            103 38 38 90 vhcurveto
            120 vlineto
            83 -38 46 -103 return
          </CharString>
          <CharString index="349">
            rmoveto
            238 150 -238 vlineto
            -39 -12 -30 -63 -63 -12 30 39 vhcurveto
            endchar
          </CharString>
          <CharString index="350">
            7 24 34 2 25 hhcurveto
            60 14 -26 -40 hvcurveto
            return
          </CharString>
          <CharString index="351">
            19 -33 -33 -11 -19 -25 -25 11 -18 33 hvcurveto
            return
          </CharString>
          <CharString index="352">
            vlineto
            -7 22 26 -6 37 hhcurveto
            return
          </CharString>
          <CharString index="353">
            -451 vlineto
            -9 -27 -22 -4 return
          </CharString>
          <CharString index="354">
            vlineto
            79 103 callgsubr
            return
          </CharString>
          <CharString index="355">
            -70 hlineto
            66 callgsubr
            return
          </CharString>
          <CharString index="356">
            337 callgsubr
            -22 return
          </CharString>
          <CharString index="357">
            vhcurveto
            136 -420 return
          </CharString>
          <CharString index="358">
            8 7 -25 -40 hvcurveto
            -123 vlineto
            -39 -15 -29 -63 -22 -23 3 5 -19 vhcurveto
            return
          </CharString>
          <CharString index="359">
            38 callsubr
            75 hlineto
            return
          </CharString>
          <CharString index="360">
            191 callgsubr
            -9 hvcurveto
            return
          </CharString>
          <CharString index="361">
            -106 vlineto
            6 -23 -33 7 -44 hhcurveto
            return
          </CharString>
          <CharString index="362">
            rmoveto
            -50 -28 -15 -67 -68 return
          </CharString>
          <CharString index="363">
            vlineto
            307 callgsubr
            return
          </CharString>
          <CharString index="364">
            rmoveto
            0 8 0 callgsubr
            return
          </CharString>
          <CharString index="365">
            63 rmoveto
            158 return
          </CharString>
          <CharString index="366">
            vlineto
            -83 47 -43 95 248 callgsubr
            72 308 callsubr
            return
          </CharString>
          <CharString index="367">
            -62 198 vlineto
            218 callsubr
            return
          </CharString>
          <CharString index="368">
            5 rlinecurve
            -25 callgsubr
            endchar
          </CharString>
          <CharString index="369">
            150 callsubr
            -5 26 23 vvcurveto
            38 return
          </CharString>
          <CharString index="370">
            308 callsubr
            21 24 222 callgsubr
            return
          </CharString>
          <CharString index="371">
            177 -248 hlineto
            -177 165 rlineto
            return
          </CharString>
          <CharString index="372">
            -8 48 hhcurveto
            46 39 6 5 23 hvcurveto
            -96 return
          </CharString>
          <CharString index="373">
            238 callgsubr
            vlineto
            return
          </CharString>
          <CharString index="374">
            70 249 -70 return
          </CharString>
          <CharString index="375">
            -50 94 2 vhcurveto
            return
          </CharString>
          <CharString index="376">
            4 -24 -109 314 callgsubr
            return
          </CharString>
          <CharString index="377">
            153 146 101 62 -475 -62 300 -87 -77 hlineto
            -97 -49 return
          </CharString>
          <CharString index="378">
            15 vlineto
            83 -50 38 -71 -29 -22 -8 0 vhcurveto
            -59 vlineto
            0 15 8 return
          </CharString>
          <CharString index="379">
            106 callgsubr
            endchar
          </CharString>
          <CharString index="380">
            12 1 3 hhcurveto
            return
          </CharString>
          <CharString index="381">
            rmoveto
            108 callgsubr
            return
          </CharString>
          <CharString index="382">
            258 callgsubr
            87 vlineto
            190 callgsubr
            return
          </CharString>
          <CharString index="383">
            vvcurveto
            -126 vlineto
            -80 40 -43 100 99 41 43 80 vhcurveto
            185 return
          </CharString>
          <CharString index="384">
            69 590 rmoveto
            -83 callgsubr
            -262 -62 vlineto
            return
          </CharString>
          <CharString index="385">
            267 rmoveto
            -341 -674 rlineto
            58 hlineto
            340 674 rlineto
            return
          </CharString>
          <CharString index="386">
            652 rmoveto
            -357 -62 357 hlineto
            return
          </CharString>
          <CharString index="387">
            -26 -18 -18 -26 -26 18 -18 26 hvcurveto
            return
          </CharString>
          <CharString index="388">
            28 44 134 callsubr
            41 23 31 return
          </CharString>
          <CharString index="389">
            302 callgsubr
            104 return
          </CharString>
          <CharString index="390">
            98 hlineto
            67 23 -34 -51 hvcurveto
            return
          </CharString>
          <CharString index="391" raw="1">
            6ff72a0a 0b  
          </CharString>
          <CharString index="392">
            288 callgsubr
            95 return
          </CharString>
          <CharString index="393">
            4 -11 152 callgsubr
            return
          </CharString>
          <CharString index="394">
            58 33 93 vhcurveto
            2 vlineto
            return
          </CharString>
          <CharString index="395">
            63 rmoveto
            -76 158 return
          </CharString>
          <CharString index="396">
            -37 -43 vvcurveto
            -34 vlineto
            return
          </CharString>
          <CharString index="397">
            66 -52 108 return
          </CharString>
          <CharString index="398">
            vlineto
            0 9 -24 257 callgsubr
            -26 -29 -63 -35 return
          </CharString>
          <CharString index="399">
            254 callgsubr
            40 6 5 23 vhcurveto
            -96 return
          </CharString>
          <CharString index="400">
            -1 -2 21 vhcurveto
            -5 -14 -2 -17 -18 vvcurveto
            -183 vlineto
            -83 return
          </CharString>
          <CharString index="401">
            vlineto
            -98 67 -52 return
          </CharString>
          <CharString index="402">
            0 7 hhcurveto
            27 9 -16 -30 10 hvcurveto
            37 -120 rlineto
            return
          </CharString>
          <CharString index="403">
            343 389 rmoveto
            -46 11 -34 42 -16 vhcurveto
            -43 -14 return
          </CharString>
          <CharString index="404">
            -45 100 34 23 4 5 18 vhcurveto
            -133 71 590 return
          </CharString>
          <CharString index="405">
            rmoveto
            -52 -21 -36 -67 -67 -21 37 51 vhcurveto
            144 vlineto
            return
          </CharString>
          <CharString index="406">
            205 503 rmoveto
            -103 -47 -43 -84 hvcurveto
            -163 vlineto
            return
          </CharString>
          <CharString index="407">
            345 callsubr
            34 81 hvcurveto
            return
          </CharString>
          <CharString index="408">
            -151 40 358 rmoveto
            -65 161 65 vlineto
            endchar
          </CharString>
          <CharString index="409">
            -89 -70 hlineto
            -103 -48 -41 -88 hvcurveto
            return
          </CharString>
          <CharString index="410">
            -38 callgsubr
            -47 -17 -18 return
          </CharString>
          <CharString index="411">
            rlineto
            92 hlineto
            152 138 rlineto
            return
          </CharString>
          <CharString index="412">
            -125 rlineto
            36 hlineto
            return
          </CharString>
          <CharString index="413">
            108 48 50 88 return
          </CharString>
          <CharString index="414">
            vlineto
            80 1 48 return
          </CharString>
          <CharString index="415">
            432 vlineto
            6 return
          </CharString>
          <CharString index="416">
            rmoveto
            39 16 25 63 vhcurveto
            142 155 98 62 return
          </CharString>
          <CharString index="417">
            -81 -23 32 44 hvcurveto
            52 vlineto
            39 20 24 63 vhcurveto
            return
          </CharString>
          <CharString index="418">
            0 44 -5 60 vhcurveto
            62 vlineto
            -60 -44 -6 0 hvcurveto
            return
          </CharString>
          <CharString index="419">
            307 callgsubr
            136 -431 72 590 return
          </CharString>
          <CharString index="420">
            -88 -52 -35 -99 -99 52 -38 88 48 38 9 0 return
          </CharString>
          <CharString index="421">
            -93 -31 172 callsubr
            35 81 hvcurveto
            return
          </CharString>
          <CharString index="422">
            640 501 rmoveto
            -30 -31 -4 -5 -15 hvcurveto
            98 return
          </CharString>
          <CharString index="423">
            hhcurveto
            61 14 -26 -40 hvcurveto
            return
          </CharString>
          <CharString index="424">
            hlineto
            55 11 -24 -38 hvcurveto
            return
          </CharString>
          <CharString index="425">
            -4 -14 -25 -5 -29 hhcurveto
            return
          </CharString>
          <CharString index="426">
            12 -19 36 hvcurveto
            endchar
          </CharString>
          <CharString index="427">
            -18 -28 -20 hvcurveto
            26 -18 -35 20 -56 hhcurveto
            -96 return
          </CharString>
          <CharString index="428">
            -46 151 rlineto
            56 -17 -31 22 -47 hhcurveto
            -11 return
          </CharString>
          <CharString index="429">
            35 82 vvcurveto
            60 vlineto
            38 -11 22 -13 7 vhcurveto
            return
          </CharString>
          <CharString index="430">
            505 652 rmoveto
            -531 -62 531 hlineto
            return
          </CharString>
          <CharString index="431">
            25 26 -18 19 -26 -25 -19 -19 -26 -25 19 return
          </CharString>
          <CharString index="432">
            hhcurveto
            -186 -130 -40 -159 hvcurveto
            endchar
          </CharString>
          <CharString index="433">
            -29 -65 -65 -18 29 40 vhcurveto
            return
          </CharString>
          <CharString index="434">
            26 39 hvcurveto
            179 vlineto
            40 return
          </CharString>
          <CharString index="435">
            -89 -70 hlineto
            -42 -33 -7 -14 return
          </CharString>
          <CharString index="436">
            rlineto
            50 45 32 32 75 vvcurveto
            return
          </CharString>
          <CharString index="437">
            34 hhcurveto
            100 46 48 83 hvcurveto
            return
          </CharString>
          <CharString index="438">
            63 vhcurveto
            27 hlineto
            111 32 return
          </CharString>
          <CharString index="439">
            196 callsubr
            10 return
          </CharString>
          <CharString index="440">
            282 68 -202 return
          </CharString>
          <CharString index="441">
            8 -31 14 -24 vhcurveto
            return
          </CharString>
          <CharString index="442">
            -85 48 -49 103 return
          </CharString>
          <CharString index="443">
            -83 49 -49 104 return
          </CharString>
          <CharString index="444">
            hhcurveto
            53 16 -18 -35 hvcurveto
            -39 vlineto
            -30 -7 return
          </CharString>
          <CharString index="445">
            vlineto
            7 22 32 2 22 hhcurveto
            61 12 -26 return
          </CharString>
          <CharString index="446">
            hvcurveto
            -233 119 callgsubr
            return
          </CharString>
          <CharString index="447">
            vhcurveto
            54 65 -55 123 callsubr
            return
          </CharString>
          <CharString index="448">
            62 rmoveto
            303 callgsubr
            return
          </CharString>
          <CharString index="449">
            vlineto
            41 18 26 66 vhcurveto
            146 155 return
          </CharString>
          <CharString index="450">
            vlineto
            -39 -13 -26 -60 251 callgsubr
            vhcurveto
            return
          </CharString>
          <CharString index="451">
            rmoveto
            -47 -18 35 32 7 2 35 10 hvcurveto
            return
          </CharString>
          <CharString index="452">
            rmoveto
            -92 -32 172 callsubr
            return
          </CharString>
          <CharString index="453">
            vlineto
            -174 137 rlineto
            32 6 23 20 return
          </CharString>
          <CharString index="454">
            -70 -110 vlineto
            -5 -23 -20 -4 -35 hhcurveto
            return
          </CharString>
          <CharString index="455">
            49 vhcurveto
            7 hlineto
            endchar
          </CharString>
          <CharString index="456">
            -1 -1 -9 hvcurveto
            return
          </CharString>
          <CharString index="457">
            -116 -116 return
          </CharString>
        <CharString name=".notdef">
          365 174 hmoveto
          403 701 -403 hlineto
          62 -57 rmoveto
          280 -587 -280 hlineto
          endchar
        </CharString>
        <CharString name="A">
          56 349 hmoveto
          78 -50 callgsubr
          -14 68 156 callsubr
        </CharString>
        <CharString name="AE">
          279 354 253 rmoveto
          -157 hlineto
          157 365 rlineto
          -618 vmoveto
          295 69 -219 236 190 70 -190 229 219 70 -342 hlineto
          -300 -674 rlineto
          81 hlineto
          80 185 rlineto
          186 hlineto
          endchar
        </CharString>
        <CharString name="Aacute">
          56 349 hmoveto
          78 -50 callgsubr
          -74 638 rmoveto
          -39 -108 rlineto
          49 hlineto
          61 108 rlineto
          -11 -570 156 callsubr
        </CharString>
        <CharString name="Abreve">
          56 349 hmoveto
          78 -50 callgsubr
          -14 68 106 callsubr
          59 224 15 callgsubr
          endchar
        </CharString>
        <CharString name="Acircumflex">
          56 349 hmoveto
          78 -50 callgsubr
          -14 68 106 callsubr
          40 116 rmoveto
          -40 callgsubr
        </CharString>
        <CharString name="Adieresis">
          56 152 729 -88 callgsubr
          59 -729 rmoveto
          78 -50 callgsubr
          -14 68 156 callsubr
        </CharString>
        <CharString name="Agrave">
          56 349 hmoveto
          78 -50 callgsubr
          -178 638 rmoveto
          61 -108 rlineto
          49 hlineto
          -39 108 rlineto
          93 -570 156 callsubr
        </CharString>
        <CharString name="Amacron">
          56 349 hmoveto
          78 -50 callgsubr
          -203 609 rmoveto
          -50 226 50 vlineto
          -37 -541 156 callsubr
        </CharString>
        <CharString name="Aogonek">
          56 388 hmoveto
          -20 callsubr
          1 -50 callgsubr
          40 -185 rlineto
          -54 253 156 callsubr
        </CharString>
        <CharString name="Aring">
          56 349 hmoveto
          78 -50 callgsubr
          -88 549 rmoveto
          -21 -13 13 22 20 13 14 21 21 13 -14 -20 -22 -13 -13 -21 hvcurveto
          -39 vmoveto
          49 26 34 40 40 -26 33 -49 -48 -27 -33 -40 -40 27 -34 48 hvcurveto
          74 -442 156 callsubr
        </CharString>
        <CharString name="Atilde">
          56 349 hmoveto
          78 -50 callgsubr
          -14 68 106 callsubr
          77 216 -61 callsubr
        </CharString>
        <CharString name="B">
          83 244 304 rmoveto
          65 27 -33 -55 hvcurveto
          -61 vlineto
          -54 -27 -33 -65 vhcurveto
          -99 236 hlineto
          93 302 rmoveto
          65 27 -33 -55 hvcurveto
          -57 vlineto
          -55 -27 -32 -65 vhcurveto
          -93 232 hlineto
          -79 -606 rmoveto
          186 hlineto
          108 54 58 95 hvcurveto
          61 vlineto
          61 -24 46 -56 19 vhcurveto
          52 20 22 45 59 vvcurveto
          57 vlineto
          95 -54 58 -108 vhcurveto
          -180 hlineto
          endchar
        </CharString>
        <CharString name="C">
          9 56 139 rmoveto
          -89 57 -55 127 46 46 7 9 28 vhcurveto
          -2 callgsubr
          endchar
        </CharString>
        <CharString name="CR">
          -387 endchar
        </CharString>
        <CharString name="Cacute">
          9 56 139 rmoveto
          -89 57 -55 127 46 46 7 9 28 vhcurveto
          -2 callgsubr
          186 289 -59 callsubr
        </CharString>
        <CharString name="Ccaron">
          9 56 139 rmoveto
          -89 57 -55 127 46 46 7 9 28 vhcurveto
          -2 callgsubr
          208 289 -65 callsubr
        </CharString>
        <CharString name="Ccedilla">
          9 56 139 rmoveto
          -80 46 -52 101 -10 vhcurveto
          -14 -67 62 callgsubr
          8 35 rlineto
          43 46 7 9 28 hvcurveto
          -2 callgsubr
          endchar
        </CharString>
        <CharString name="D">
          81 5 callsubr
          93 callsubr
          537 283 callsubr
          endchar
        </CharString>
        <CharString name="Dcaron">
          81 333 157 rmoveto
          -52 -23 -36 -67 vhcurveto
          -98 537 283 callsubr
          -267 153 rmoveto
          -674 186 vlineto
          111 49 63 91 hvcurveto
          369 vlineto
          90 -54 61 -109 vhcurveto
          13 149 -65 callsubr
        </CharString>
        <CharString name="Dcroat">
          83 69 674 rmoveto
          -305 -61 -67 61 -302 93 callsubr
          233 97 67 -97 237 283 callsubr
          endchar
        </CharString>
        <CharString name="E">
          -41 callsubr
          endchar
        </CharString>
        <CharString name="Eacute">
          -41 callsubr
          -134 149 -59 callsubr
        </CharString>
        <CharString name="Ecaron">
          -41 callsubr
          -112 149 -65 callsubr
        </CharString>
        <CharString name="Ecircumflex">
          -41 callsubr
          -118 41 rmoveto
          -40 callgsubr
        </CharString>
        <CharString name="Edieresis">
          -41 callsubr
          -216 55 -88 callgsubr
          endchar
        </CharString>
        <CharString name="Edotaccent">
          -41 callsubr
          -144 75 35 callgsubr
        </CharString>
        <CharString name="Egrave">
          -41 callsubr
          -233 149 34 callgsubr
        </CharString>
        <CharString name="Emacron">
          -41 callsubr
          -262 120 113 callsubr
        </CharString>
        <CharString name="Eogonek">
          150 callgsubr
          260 vlineto
          -20 callsubr
          69 -219 236 190 70 -190 229 219 70 vlineto
          endchar
        </CharString>
        <CharString name="Eth">
          83 69 674 rmoveto
          -310 -72 -67 72 -297 93 callsubr
          228 103 67 -103 242 283 callsubr
          endchar
        </CharString>
        <CharString name="Euro">
          26 67 139 rmoveto
          -89 57 -55 127 46 46 7 9 28 vhcurveto
          72 vlineto
          -9 -31 -44 -8 -44 hhcurveto
          -82 -23 30 48 hvcurveto
          103 148 56 -148 77 148 57 -148 93 vlineto
          48 23 29 82 43 43 -7 -10 31 vhcurveto
          73 vlineto
          8 -29 -42 8 -46 hhcurveto
          -127 -58 -56 -89 hvcurveto
          -97 -52 -57 52 -77 -52 -56 52 vlineto
          endchar
        </CharString>
        <CharString name="F">
          -13 5 callsubr
          80 290 198 70 -198 244 209 70 vlineto
          endchar
        </CharString>
        <CharString name="G">
          -3 callgsubr
          endchar
        </CharString>
        <CharString name="Gbreve">
          -3 callgsubr
          233 294 15 callgsubr
          endchar
        </CharString>
        <CharString name="H">
          111 352 674 rmoveto
          -308 -206 308 -80 -674 80 295 206 -295 80 674 vlineto
          endchar
        </CharString>
        <CharString name="I">
          -175 5 callsubr
          80 674 vlineto
          endchar
        </CharString>
        <CharString name="Iacute">
          -175 5 callsubr
          80 674 vlineto
          -28 149 -59 callsubr
        </CharString>
        <CharString name="Icircumflex">
          -175 5 callsubr
          80 674 vlineto
          41 vmoveto
          -40 callgsubr
        </CharString>
        <CharString name="Idieresis">
          -175 5 callsubr
          80 674 vlineto
          -110 55 -88 callgsubr
          endchar
        </CharString>
        <CharString name="Idotaccent">
          -175 5 callsubr
          80 674 vlineto
          -42 75 35 callgsubr
        </CharString>
        <CharString name="Igrave">
          -175 5 callsubr
          80 674 vlineto
          -123 149 34 callgsubr
        </CharString>
        <CharString name="Imacron">
          -175 5 callsubr
          80 674 vlineto
          -151 120 113 callsubr
        </CharString>
        <CharString name="Iogonek">
          -175 5 callsubr
          42 vlineto
          -20 callsubr
          674 vlineto
          endchar
        </CharString>
        <CharString name="J">
          -174 68 674 rmoveto
          -476 vlineto
          -99 -14 -63 -23 -80 vhcurveto
          -30 -105 rlineto
          81 hlineto
          31 104 rlineto
          19 66 15 65 113 vvcurveto
          475 vlineto
          endchar
        </CharString>
        <CharString name="K">
          147 callgsubr
          endchar
        </CharString>
        <CharString name="L">
          187 callsubr
          endchar
        </CharString>
        <CharString name="Lacute">
          187 callsubr
          -28 149 -59 callsubr
        </CharString>
        <CharString name="Lcaron">
          -34 212 721 105 callgsubr
          -176 -47 rmoveto
          -674 333 callsubr
          606 vlineto
          endchar
        </CharString>
        <CharString name="Lslash">
          -34 69 674 rmoveto
          -336 vlineto
          -55 -28 rlineto
          -60 vlineto
          55 28 rlineto
          -278 333 callsubr
          250 vlineto
          95 47 rlineto
          61 vlineto
          -95 -48 rlineto
          296 vlineto
          endchar
        </CharString>
        <CharString name="M">
          228 456 674 rmoveto
          -149 -415 -149 415 rlineto
          -92 -674 75 344 hlineto
          106 -8 93 0 vhcurveto
          134 -364 rlineto
          79 hlineto
          134 364 rlineto
          0 -7 -84 -116 vvcurveto
          -343 75 674 vlineto
          endchar
        </CharString>
        <CharString name="N">
          -57 callgsubr
          endchar
        </CharString>
        <CharString name="NULL">
          -387 endchar
        </CharString>
        <CharString name="Nacute">
          -57 callgsubr
          -171 149 -59 callsubr
        </CharString>
        <CharString name="Ncaron">
          -57 callgsubr
          -148 149 -65 callsubr
        </CharString>
        <CharString name="Ntilde">
          -57 callgsubr
          -104 141 -61 callsubr
        </CharString>
        <CharString name="O">
          -81 callsubr
          endchar
        </CharString>
        <CharString name="OE">
          287 245 69 rmoveto
          -67 -23 36 52 hvcurveto
          364 vlineto
          51 23 34 67 vhcurveto
          102 -537 hlineto
          -111 -69 rmoveto
          409 69 -219 236 190 70 -190 229 219 70 -406 hlineto
          -109 -54 -61 -90 hvcurveto
          -369 vlineto
          -91 49 -63 111 vhcurveto
          endchar
        </CharString>
        <CharString name="Oacute">
          -81 callsubr
          -80 302 -59 callsubr
        </CharString>
        <CharString name="Ocircumflex">
          73 325 153 rmoveto
          -55 -27 -37 -68 -69 -26 37 55 vhcurveto
          368 vlineto
          55 26 36 69 68 27 -37 -54 vhcurveto
          -269 -371 rmoveto
          -91 55 110 callsubr
          373 vlineto
          92 -54 69 -119 -119 -55 -69 -92 vhcurveto
          210 192 rmoveto
          -40 callgsubr
        </CharString>
        <CharString name="Odieresis">
          -81 callsubr
          -164 208 -88 callgsubr
          endchar
        </CharString>
        <CharString name="Ograve">
          -81 callsubr
          -186 302 34 callgsubr
        </CharString>
        <CharString name="Ohungarumlaut">
          -81 callsubr
          -35 302 57 callgsubr
        </CharString>
        <CharString name="Omacron">
          -81 callsubr
          -207 273 113 callsubr
        </CharString>
        <CharString name="Oslash">
          73 56 150 rmoveto
          -35 8 -31 16 -26 vhcurveto
          -25 -58 rlineto
          57 hlineto
          8 18 rlineto
          -18 27 37 -10 46 hhcurveto
          119 54 69 91 hvcurveto
          373 vlineto
          35 -8 31 -16 26 vhcurveto
          26 59 rlineto
          -57 hlineto
          -8 -19 rlineto
          19 -27 -37 10 -46 hhcurveto
          -119 -55 -69 -92 hvcurveto
          79 -2 rmoveto
          55 26 36 69 38 25 -11 -20 15 vhcurveto
          -173 -397 rlineto
          95 -123 rmoveto
          -38 -25 11 20 -15 hvcurveto
          173 398 rlineto
          -337 vlineto
          -55 -27 -37 -68 vhcurveto
          endchar
        </CharString>
        <CharString name="Otilde">
          -81 callsubr
          -22 294 -61 callsubr
        </CharString>
        <CharString name="P">
          55 220 callgsubr
          228 91 vlineto
          109 54 60 91 hvcurveto
          144 vlineto
          90 -54 61 -109 vhcurveto
          85 -290 rmoveto
          -54 -25 -33 -65 vhcurveto
          -86 307 86 hlineto
          65 25 -32 -55 hvcurveto
          endchar
        </CharString>
        <CharString name="Q">
          73 325 153 rmoveto
          -55 -27 -37 -68 -69 -26 37 55 vhcurveto
          368 vlineto
          55 26 36 69 68 27 -37 -54 vhcurveto
          -269 -371 rmoveto
          -91 55 -69 119 14 13 1 2 12 vhcurveto
          84 -92 rlineto
          97 hlineto
          -109 118 rlineto
          42 29 20 47 55 vvcurveto
          373 vlineto
          92 -54 69 -119 -119 -55 -69 -92 vhcurveto
          endchar
        </CharString>
        <CharString name="R">
          72 -38 callsubr
          endchar
        </CharString>
        <CharString name="Racute">
          72 220 callgsubr
          268 92 vlineto
          97 -268 rlineto
          87 hlineto
          -107 280 rlineto
          59 22 26 51 68 vvcurveto
          102 vlineto
          91 -54 60 -109 vhcurveto
          5 149 rmoveto
          -39 -108 rlineto
          49 hlineto
          61 108 rlineto
          9 -401 rmoveto
          -56 -25 -31 -65 vhcurveto
          -86 270 86 hlineto
          64 26 -31 -55 hvcurveto
          endchar
        </CharString>
        <CharString name="Rcaron">
          72 -38 callsubr
          -61 304 -65 callsubr
        </CharString>
        <CharString name="S">
          -84 callsubr
          endchar
        </CharString>
        <CharString name="Sacute">
          -84 callsubr
          184 288 -59 callsubr
        </CharString>
        <CharString name="Scaron">
          -84 callsubr
          210 288 -65 callsubr
        </CharString>
        <CharString name="T">
          108 callsubr
          endchar
        </CharString>
        <CharString name="Tcaron">
          108 callsubr
          -135 149 -65 callsubr
        </CharString>
        <CharString name="Thorn">
          45 239 486 rmoveto
          65 25 -33 -54 hvcurveto
          -124 vlineto
          -54 -25 -31 -65 vhcurveto
          -86 296 hlineto
          -77 188 rmoveto
          -674 77 120 90 vlineto
          108 55 60 91 hvcurveto
          132 vlineto
          91 -55 60 -108 vhcurveto
          -90 120 hlineto
          endchar
        </CharString>
        <CharString name="U">
          82 329 674 -58 callsubr
          endchar
        </CharString>
        <CharString name="Uacute">
          82 329 674 -58 callsubr
          -158 149 -59 callsubr
        </CharString>
        <CharString name="Ucircumflex">
          82 329 674 -58 callsubr
          -137 41 rmoveto
          -40 callgsubr
        </CharString>
        <CharString name="Udieresis">
          82 329 674 -58 callsubr
          -242 55 -88 callgsubr
          endchar
        </CharString>
        <CharString name="Ugrave">
          82 329 674 -58 callsubr
          -258 149 34 callgsubr
        </CharString>
        <CharString name="Uhungarumlaut">
          82 288 823 rmoveto
          -40 -108 rlineto
          44 hlineto
          63 108 rlineto
          -156 hmoveto
          -41 -108 rlineto
          45 hlineto
          62 108 rlineto
          64 -149 -58 callsubr
          endchar
        </CharString>
        <CharString name="Umacron">
          82 329 674 -58 callsubr
          -286 120 113 callsubr
        </CharString>
        <CharString name="Uogonek">
          82 329 674 rmoveto
          -521 vlineto
          -55 -26 -37 -69 -68 -26 37 55 vhcurveto
          521 -79 -524 vlineto
          -91 54 -69 119 12 12 1 1 11 vhcurveto
          -24 -25 -17 -33 -33 vvcurveto
          -45 29 -25 54 vhcurveto
          16 50 -12 hlineto
          -24 -12 10 26 33 17 34 28 23 hvcurveto
          57 26 26 53 64 vvcurveto
          524 vlineto
          endchar
        </CharString>
        <CharString name="Uring">
          82 329 674 -58 callsubr
          -171 21 2 callgsubr
        </CharString>
        <CharString name="V">
          39 332 674 rmoveto
          -68 -330 -17 -89 -20 -116 -13 -64 rlinecurve
          -14 64 -20 115 -18 90 -69 330 rcurveline
          -81 hlineto
          146 -674 rlineto
          111 hlineto
          145 674 rlineto
          endchar
        </CharString>
        <CharString name="W">
          220 514 674 rmoveto
          -62 -384 rlineto
          -12 -73 -12 -105 0 vvcurveto
          0 -14 105 -10 73 vhcurveto
          -61 384 rlineto
          -78 hlineto
          -61 -383 rlineto
          -14 -90 -11 -91 0 vvcurveto
          0 -9 92 -14 88 vhcurveto
          -62 384 rlineto
          -75 hlineto
          109 -674 rlineto
          92 hlineto
          55 330 rlineto
          20 113 9 109 0 vvcurveto
          0 10 -106 20 -117 vhcurveto
          55 -329 rlineto
          90 hlineto
          109 674 rlineto
          endchar
        </CharString>
        <CharString name="X">
          12 302 674 rmoveto
          -102 -250 -102 250 rlineto
          -86 hlineto
          146 -338 -146 -336 rlineto
          86 hlineto
          102 248 101 -248 rlineto
          86 hlineto
          -147 336 147 338 rlineto
          endchar
        </CharString>
        <CharString name="Y">
          112 callgsubr
          endchar
        </CharString>
        <CharString name="Yacute">
          112 callgsubr
          -193 149 -59 callsubr
        </CharString>
        <CharString name="Ydieresis">
          29 135 729 -88 callgsubr
          60 -55 rmoveto
          -64 -176 -23 -70 -19 -56 -18 -56 rlinecurve
          -17 56 -18 56 -25 71 -64 175 rcurveline
          -81 hlineto
          165 -448 rlineto
          -226 79 226 vlineto
          165 448 rlineto
          endchar
        </CharString>
        <CharString name="Z">
          44 callsubr
          endchar
        </CharString>
        <CharString name="Zacute">
          44 callsubr
          -153 149 -59 callsubr
        </CharString>
        <CharString name="Zcaron">
          44 callsubr
          -126 149 -65 callsubr
        </CharString>
        <CharString name="Zdotaccent">
          44 callsubr
          -165 75 35 callgsubr
        </CharString>
        <CharString name="a">
          -100 callgsubr
          endchar
        </CharString>
        <CharString name="aacute">
          -100 callgsubr
          -68 447 -59 callsubr
        </CharString>
        <CharString name="abreve">
          -100 callgsubr
          -18 447 15 callgsubr
          endchar
        </CharString>
        <CharString name="acircumflex">
          -100 callgsubr
          -37 339 rmoveto
          -40 callgsubr
        </CharString>
        <CharString name="acute">
          -37 159 723 -59 callsubr
        </CharString>
        <CharString name="adieresis">
          -100 callgsubr
          -147 353 -88 callgsubr
          endchar
        </CharString>
        <CharString name="ae">
          263 191 576 rmoveto
          -55 -52 -11 -8 -26 hvcurveto
          -74 vlineto
          10 27 52 11 51 hhcurveto
          81 19 -28 -46 hvcurveto
          -84 vlineto
          -136 -40 rlineto
          -84 -24 -36 -44 -72 vvcurveto
          -33 vlineto
          -87 45 -50 98 62 58 18 27 34 vhcurveto
          -30 30 50 -16 71 hhcurveto
          58 36 8 8 29 hvcurveto
          73 vlineto
          -9 -28 -42 -9 -48 hhcurveto
          -84 -36 28 57 hvcurveto
          96 254 178 vlineto
          89 -47 67 -116 -61 -43 -25 -26 -25 vhcurveto
          29 -26 -44 17 -66 hhcurveto
          98 -484 rmoveto
          -19 -24 -38 -13 -42 hhcurveto
          -56 -21 24 49 hvcurveto
          30 vlineto
          44 15 23 58 16 vhcurveto
          108 31 rlineto
          255 35 rmoveto
          -179 112 hlineto
          53 27 36 64 64 24 -36 -53 vhcurveto
          endchar
        </CharString>
        <CharString name="agrave">
          -100 callgsubr
          -166 447 34 callgsubr
        </CharString>
        <CharString name="amacron">
          -100 callgsubr
          -192 418 113 callsubr
        </CharString>
        <CharString name="ampersand">
          75 231 61 rmoveto
          -69 -30 37 55 hvcurveto
          69 vlineto
          53 23 37 64 vhcurveto
          109 -159 hlineto
          -55 -29 -37 -68 vhcurveto
          -177 411 rmoveto
          -62 26 -43 50 -19 vhcurveto
          -52 -19 -25 -43 -62 vvcurveto
          -72 vlineto
          -92 59 -69 119 118 56 69 92 vhcurveto
          160 43 69 -43 60 -77 -60 -110 vlineto
          -65 -20 37 55 hvcurveto
          50 vlineto
          47 23 36 92 49 43 -9 -11 32 vhcurveto
          75 vlineto
          9 -27 -45 9 -53 hhcurveto
          -136 -57 -62 -89 hvcurveto
          endchar
        </CharString>
        <CharString name="aogonek">
          39 58 484 rmoveto
          10 27 53 10 50 hhcurveto
          81 19 -27 -49 1 hvcurveto
          -84 vlineto
          -137 -38 rlineto
          -85 -24 -37 -44 -72 vvcurveto
          -32 vlineto
          -88 41 -49 98 65 29 20 24 27 vhcurveto
          -41 36 vlineto
          -20 callsubr
          1 427 hlineto
          94 -47 55 -126 -55 -52 -10 -9 -27 vhcurveto
          230 -461 rmoveto
          -19 -23 -37 -17 -43 hhcurveto
          -58 -19 25 48 hvcurveto
          30 vlineto
          44 15 22 58 17 vhcurveto
          107 30 rlineto
          endchar
        </CharString>
        <CharString name="apostrophemod">
          200 callsubr
        </CharString>
        <CharString name="approxequal">
          92 371 315 rmoveto
          10 -58 -40 -10 244 callgsubr
          -17 3 -15 0 vhcurveto
          65 hlineto
          -10 57 42 9 50 -22 93 -39 327 callgsubr
          17 -3 15 0 vhcurveto
          -65 159 rmoveto
          10 -58 -40 -11 244 callgsubr
          -16 3 -16 0 vhcurveto
          65 hlineto
          -10 58 42 9 50 -22 93 -40 327 callgsubr
          18 -3 15 0 vhcurveto
          endchar
        </CharString>
        <CharString name="aring">
          -100 callgsubr
          -79 319 2 callgsubr
        </CharString>
        <CharString name="asciicircum">
          -58 246 381 rmoveto
          76 hlineto
          -109 290 rlineto
          -100 hlineto
          -110 -290 rlineto
          76 hlineto
          84 247 rlineto
          endchar
        </CharString>
        <CharString name="asciitilde">
          59 354 399 rmoveto
          10 -58 -40 -10 244 callgsubr
          -17 2 -15 0 vhcurveto
          65 hlineto
          -10 57 43 10 50 -23 93 -39 327 callgsubr
          18 -3 14 0 vhcurveto
          endchar
        </CharString>
        <CharString name="asterisk">
          114 217 790 rmoveto
          -100 vlineto
          -25 4 -19 5 -13 vhcurveto
          -12 9 -17 9 -24 8 -95 30 rcurveline
          -21 -65 95 -31 rlineto
          -8 24 19 -2 15 hhcurveto
          -12 -8 -14 -13 -15 -21 -59 -80 rcurveline
          56 -41 59 81 15 20 8 17 4 14 rlinecurve
          4 -14 8 -17 15 -20 59 -81 rcurveline
          55 41 -59 81 -15 20 -13 13 -12 8 rlinecurve
          15 -1 19 3 24 8 94 31 rcurveline
          -21 66 -95 -31 -24 -8 -17 -9 -11 -9 rlinecurve
          4 13 4 19 25 vvcurveto
          100 vlineto
          endchar
        </CharString>
        <CharString name="at">
          476 435 -115 rmoveto
          87 63 -86 hlineto
          -233 -62 125 202 202 61 126 234 234 61 -117 -203 -152 -36 -44 -56 -48 -22 22 55 hvcurveto
          227 vlineto
          75 -40 47 -95 -45 -45 -8 -8 -32 vhcurveto
          -60 vlineto
          12 47 32 6 43 hhcurveto
          57 13 -27 -39 hvcurveto
          -56 vlineto
          -104 -33 rlineto
          -68 -22 -43 -29 -73 vvcurveto
          -16 vlineto
          -73 43 -40 78 63 36 19 10 15 vhcurveto
          -31 19 37 -19 56 hhcurveto
          102 62 68 189 242 -89 141 -275 -271 -94 -151 -240 -241 90 -149 274 hvcurveto
          69 245 rmoveto
          0 -32 -26 -53 -40 -22 15 41 vhcurveto
          17 vlineto
          46 22 11 42 13 vhcurveto
          83 25 rlineto
          endchar
        </CharString>
        <CharString name="atilde">
          -100 callgsubr
          -4 439 -61 callsubr
        </CharString>
        <CharString name="b">
          62 66 723 rmoveto
          -723 178 vlineto
          88 60 50 98 hvcurveto
          294 vlineto
          86 -53 46 -79 -47 -45 -15 -9 -23 vhcurveto
          173 vlineto
          168 -568 rmoveto
          -58 -32 -25 -56 vhcurveto
          -80 405 hlineto
          12 30 34 11 35 hhcurveto
          43 26 -21 -48 hvcurveto
          endchar
        </CharString>
        <CharString name="backslash">
          14 33 794 rmoveto
          270 -932 rlineto
          71 hlineto
          -270 932 rlineto
          endchar
        </CharString>
        <CharString name="bar">
          -178 75 811 rmoveto
          -965 59 965 vlineto
          endchar
        </CharString>
        <CharString name="braceleft">
          -30 206 658 rmoveto
          39 20 25 57 vhcurveto
          18 67 -21 hlineto
          -92 -51 -51 -82 hvcurveto
          -227 vlineto
          -43 -26 -26 -50 vhcurveto
          -3 -67 3 hlineto
          50 26 -27 -43 hvcurveto
          -227 vlineto
          -82 51 -51 92 vhcurveto
          21 67 -18 hlineto
          -57 -20 25 39 hvcurveto
          207 vlineto
          73 -17 43 -70 9 vhcurveto
          70 10 17 45 73 vvcurveto
          endchar
        </CharString>
        <CharString name="braceright">
          -31 294 360 rmoveto
          -49 -26 26 43 hvcurveto
          227 vlineto
          82 -51 51 -92 vhcurveto
          -22 -67 18 hlineto
          58 19 -25 -39 hvcurveto
          -204 vlineto
          -73 18 -45 69 -10 vhcurveto
          -69 -9 -18 -43 -73 vvcurveto
          -207 vlineto
          -39 -19 -25 -58 vhcurveto
          -18 -67 22 hlineto
          92 51 51 82 hvcurveto
          227 vlineto
          43 26 27 49 vhcurveto
          3 67 hlineto
          endchar
        </CharString>
        <CharString name="bracketleft">
          -84 82 794 rmoveto
          -932 190 62 -123 808 123 62 vlineto
          endchar
        </CharString>
        <CharString name="bracketright">
          -84 31 794 rmoveto
          -62 123 -808 -123 -62 190 932 vlineto
          endchar
        </CharString>
        <CharString name="breve">
          -37 233 723 15 callgsubr
          endchar
        </CharString>
        <CharString name="brokenbar">
          -178 75 811 rmoveto
          -379 59 379 vlineto
          -59 -586 rmoveto
          -379 59 379 vlineto
          endchar
        </CharString>
        <CharString name="bullet">
          -119 133 252 rmoveto
          56 19 31 44 42 -19 33 -56 -56 -19 -33 -42 -44 19 -31 56 hvcurveto
          endchar
        </CharString>
        <CharString name="c">
          -16 56 140 rmoveto
          -93 51 -52 120 49 33 7 7 28 vhcurveto
          -1 callgsubr
          endchar
        </CharString>
        <CharString name="cacute">
          -16 56 140 rmoveto
          -93 51 -52 120 49 33 7 7 28 vhcurveto
          -1 callgsubr
          184 293 -59 callsubr
        </CharString>
        <CharString name="caron">
          -37 211 723 -65 callsubr
        </CharString>
        <CharString name="ccaron">
          -16 56 140 rmoveto
          -93 51 -52 120 49 33 7 7 28 vhcurveto
          -1 callgsubr
          201 293 -65 callsubr
        </CharString>
        <CharString name="ccedilla">
          -16 56 140 rmoveto
          -82 40 -50 92 -11 vhcurveto
          -14 -67 62 callgsubr
          8 35 rlineto
          48 33 7 7 28 hvcurveto
          -1 callgsubr
          endchar
        </CharString>
        <CharString name="cedilla">
          -37 148 6 rmoveto
          -16 -76 62 callgsubr
          10 46 rlineto
          endchar
        </CharString>
        <CharString name="cent">
          11 196 654 rmoveto
          -80 vlineto
          -92 -11 -40 -51 -82 vvcurveto
          -290 vlineto
          -82 40 -50 91 -11 vhcurveto
          -73 72 72 vlineto
          32 2 25 6 21 5 rrcurveto
          74 vlineto
          -9 -25 -36 -7 -41 hhcurveto
          -80 -20 27 50 hvcurveto
          282 vlineto
          50 20 27 80 38 37 -6 -7 25 vhcurveto
          72 vlineto
          -20 6 -24 5 -31 2 rrcurveto
          79 vlineto
          endchar
        </CharString>
        <CharString name="circumflex">
          -37 211 615 rmoveto
          -40 callgsubr
        </CharString>
        <CharString name="colon">
          -179 80 344 253 callgsubr
          -350 vmoveto
          102 callsubr
        </CharString>
        <CharString name="comma">
          -234 236 callsubr
          endchar
        </CharString>
        <CharString name="copyright">
          302 345 hmoveto
          235 63 139 186 191 -52 136 -246 -242 -57 -139 -188 -189 61 -136 238 hvcurveto
          -119 271 rmoveto
          -77 33 -47 99 30 29 5 2 16 vhcurveto
          60 vlineto
          -7 -25 -17 -3 -33 hhcurveto
          -65 -4 29 39 hvcurveto
          108 vlineto
          38 4 30 65 32 18 -3 -7 24 vhcurveto
          59 vlineto
          4 -16 -28 4 -30 hhcurveto
          -99 -33 -47 -77 hvcurveto
          119 -320 rmoveto
          -206 -29 109 155 155 26 111 209 210 24 -109 -157 -152 -32 -112 -202 hvcurveto
          endchar
        </CharString>
        <CharString name="currency">
          73 316 297 rmoveto
          -55 -17 -31 -68 -68 -17 31 55 vhcurveto
          80 vlineto
          55 17 31 68 68 17 -31 -55 vhcurveto
          58 -252 rmoveto
          49 49 -45 44 rlineto
          10 22 4 26 29 vvcurveto
          83 vlineto
          29 -4 26 -10 22 vhcurveto
          46 45 -50 49 -41 -41 rlineto
          16 -25 -33 8 -44 hhcurveto
          -44 -33 -8 -16 -25 hvcurveto
          -41 41 -50 -49 46 -45 rlineto
          -10 -22 -4 -26 -29 vvcurveto
          -83 vlineto
          -29 4 -26 10 -21 vhcurveto
          -46 -45 49 -49 42 41 rlineto
          -16 25 33 -8 44 hhcurveto
          44 33 8 15 24 hvcurveto
          endchar
        </CharString>
        <CharString name="d">
          61 84 callgsubr
          endchar
        </CharString>
        <CharString name="dagger">
          -31 143 784 rmoveto
          -65 6 -73 0 vhcurveto
          227 callgsubr
          0 -6 -72 -73 vvcurveto
          -479 71 479 vlineto
          73 -6 72 0 vhcurveto
          0 48 -5 56 vhcurveto
          62 vlineto
          -56 -48 -6 0 hvcurveto
          0 6 73 65 vvcurveto
          endchar
        </CharString>
        <CharString name="daggerdbl">
          -30 143 784 rmoveto
          -65 6 -73 0 vhcurveto
          227 callgsubr
          -2 -125 0 -184 2 -127 rrcurveto
          227 callgsubr
          0 -6 -52 -85 vvcurveto
          71 hlineto
          85 -6 52 0 vhcurveto
          311 callsubr
          2 127 0 184 -2 125 rrcurveto
          311 callsubr
          0 6 73 65 vvcurveto
          endchar
        </CharString>
        <CharString name="danda">
          -99 147 hmoveto
          72 652 -72 hlineto
          endchar
        </CharString>
        <CharString name="dcaron">
          69 84 callgsubr
          146 221 rmoveto
          -27 305 callsubr
          14 21 34 123 callgsubr
          -17 vhcurveto
          endchar
        </CharString>
        <CharString name="dcroat">
          62 304 723 rmoveto
          -47 -125 -48 125 -57 -89 vlineto
          -96 -62 -55 -98 hvcurveto
          -279 vlineto
          -90 48 -52 92 58 32 21 16 19 vhcurveto
          -34 77 628 40 48 -40 47 vlineto
          -79 -623 rmoveto
          -16 -17 -32 -16 -43 hhcurveto
          -51 -25 26 52 hvcurveto
          271 vlineto
          55 32 28 59 vhcurveto
          77 hlineto
          endchar
        </CharString>
        <CharString name="degree">
          -10 190 505 rmoveto
          104 37 64 84 83 -37 65 -104 -103 -36 -65 -83 -84 36 -64 103 hvcurveto
          60 vmoveto
          -63 -12 37 50 50 12 37 63 64 13 -37 -50 -50 -13 -37 -64 hvcurveto
          endchar
        </CharString>
        <CharString name="dieresis">
          -37 106 629 -88 callgsubr
          endchar
        </CharString>
        <CharString name="divide">
          56 40 357 rmoveto
          -66 362 66 vlineto
          -178 -251 rmoveto
          33 11 20 25 120 callsubr
          -34 -11 -19 -26 -25 12 -20 34 hvcurveto
          -1 343 rmoveto
          34 11 98 callgsubr
          endchar
        </CharString>
        <CharString name="dollar">
          6 158 737 rmoveto
          -61 vlineto
          -88 -13 -43 -52 -76 vvcurveto
          -59 vlineto
          -69 32 -42 56 -30 vhcurveto
          114 -63 rlineto
          41 -22 13 -20 -43 vvcurveto
          -39 vlineto
          -47 -31 -33 -84 -51 -52 11 12 -32 vhcurveto
          -76 vlineto
          22 -8 44 -9 50 -3 rrcurveto
          -67 73 70 vlineto
          95 14 45 52 78 vvcurveto
          55 vlineto
          64 -26 39 -55 30 vhcurveto
          -116 65 rlineto
          -42 23 -16 22 46 vvcurveto
          45 vlineto
          48 30 27 69 52 47 -8 -11 30 vhcurveto
          75 vlineto
          -22 7 -36 7 -46 2 rrcurveto
          59 vlineto
          endchar
        </CharString>
        <CharString name="dotaccent">
          -37 174 649 35 callgsubr
        </CharString>
        <CharString name="dotlessi">
          86 callsubr
          endchar
        </CharString>
        <CharString name="dottedcircle">
          273 183 472 rmoveto
          26 18 19 26 25 -18 19 -26 -26 -18 -19 -25 -26 18 -19 26 hvcurveto
          -80 -109 rmoveto
          24 20 19 25 25 -20 19 -24 -26 -20 -19 -25 -25 20 -19 26 hvcurveto
          -15 -125 rmoveto
          26 18 18 324 callsubr
          -18 25 hvcurveto
          52 -117 rmoveto
          25 19 18 26 25 -19 19 -25 -26 -18 -19 -25 -26 18 -18 26 hvcurveto
          102 -77 rmoveto
          25 19 20 26 24 -19 20 -25 -26 -19 -20 -24 -26 19 -20 26 hvcurveto
          126 -14 rmoveto
          26 19 18 26 26 -19 18 -26 280 callsubr
          121 53 rmoveto
          25 20 18 26 25 -20 19 -25 -25 -19 -19 -25 -26 19 -18 25 hvcurveto
          74 98 rmoveto
          24 19 19 25 26 -19 19 -24 -26 -19 -19 -26 -25 19 -19 26 hvcurveto
          9 134 rmoveto
          25 19 18 26 26 -19 18 -25 280 callsubr
          -50 118 rmoveto
          26 18 19 324 callsubr
          -19 25 hvcurveto
          -94 68 rmoveto
          25 18 20 24 26 -18 19 -25 -26 -19 -19 -26 -24 19 -20 26 hvcurveto
          -127 15 rmoveto
          26 18 18 26 26 -18 18 -26 280 callsubr
          endchar
        </CharString>
        <CharString name="doubledanda">
          59 105 hmoveto
          72 652 -72 hlineto
          199 -652 rmoveto
          72 652 -72 hlineto
          endchar
        </CharString>
        <CharString name="dvA">
          180 241 175 rmoveto
          26 callgsubr
          95 62 -167 -376 -115 vlineto
          -70 callgsubr
          endchar
        </CharString>
        <CharString name="dvAA">
          411 262 175 rmoveto
          42 callsubr
          -378 -376 -115 vlineto
          -70 callgsubr
          endchar
        </CharString>
        <CharString name="dvAI">
          41 293 652 rmoveto
          -319 -62 91 -457 hlineto
          324 callgsubr
          66 vlineto
          -9 -27 -45 -10 -50 hhcurveto
          -68 -25 28 44 hvcurveto
          456 77 callsubr
          -87 vlineto
          -157 229 rlineto
          -81 hlineto
          endchar
        </CharString>
        <CharString name="dvAU">
          412 377 817 rmoveto
          121 callsubr
          -110 -376 -115 hlineto
          -70 callgsubr
          -69 vlineto
          42 callsubr
          -98 vlineto
          14 callsubr
          endchar
        </CharString>
        <CharString name="dvAbbreviationsign">
          -10 190 186 rmoveto
          104 37 62 84 84 -37 63 -104 -103 -36 -63 -84 -84 36 -62 103 hvcurveto
          232 vmoveto
          64 13 -37 -50 -50 -13 -35 -64 -63 -12 35 50 50 12 37 63 hvcurveto
          endchar
        </CharString>
        <CharString name="dvAcandra">
          180 241 175 rmoveto
          26 callgsubr
          95 62 -167 -376 -115 vlineto
          -70 callgsubr
          316 600 24 callgsubr
          endchar
        </CharString>
        <CharString name="dvAnusvara">
          -387 -106 727 rmoveto
          -91 callgsubr
          endchar
        </CharString>
        <CharString name="dvAnusvara.amI">
          -387 67 716 rmoveto
          -91 callgsubr
          endchar
        </CharString>
        <CharString name="dvAvagraha">
          33 385 199 rmoveto
          62 -17 43 -64 37 vhcurveto
          -133 76 rlineto
          -39 22 -10 26 36 vvcurveto
          23 vlineto
          34 7 27 71 vhcurveto
          161 67 -164 hlineto
          -110 -37 -47 -79 hvcurveto
          -27 vlineto
          -59 21 -44 59 -33 vhcurveto
          134 -77 rlineto
          40 -23 8 -26 -37 vvcurveto
          -63 vlineto
          -41 -14 -34 -78 vhcurveto
          -3 hlineto
          -78 -15 34 41 hvcurveto
          67 -72 -65 vlineto
          -90 46 -54 117 vhcurveto
          7 hlineto
          117 46 54 90 hvcurveto
          endchar
        </CharString>
        <CharString name="dvB">
          -160 -26 652 rmoveto
          -62 390 62 vlineto
          -320 -450 rmoveto
          -86 49 -48 109 109 47 47 87 vhcurveto
          169 311 callgsubr
          247 -150 rmoveto
          -165 192 rlineto
          18 13 23 11 41 hhcurveto
          66 22 -30 -44 hvcurveto
          -177 -11 rmoveto
          167 -195 rlineto
          -20 -12 -23 -11 -43 hhcurveto
          -69 -20 28 45 hvcurveto
          endchar
        </CharString>
        <CharString name="dvBA">
          38 288 492 rmoveto
          178 callgsubr
          -103 -55 -44 -89 hvcurveto
          -170 vlineto
          61 callgsubr
          -477 -62 314 vlineto
          -81 -148 25 callsubr
        </CharString>
        <CharString name="dvBH">
          21 256 186 63 callgsubr
          236 63 rmoveto
          -164 8 callsubr
          166 vlineto
          endchar
        </CharString>
        <CharString name="dvBHA">
          206 256 186 215 callsubr
          -99 -41 -42 -80 hvcurveto
          -94 -63 callsubr
        </CharString>
        <CharString name="dvBH_LA">
          632 256 186 63 callgsubr
          693 -337 151 callgsubr
          -658 -62 491 -122 vlineto
          8 -19 -21 5 -31 hhcurveto
          -53 -36 -18 -28 -21 hvcurveto
          26 -17 -36 20 -55 hhcurveto
          -73 -45 -30 -51 -16 hvcurveto
          -126 8 callsubr
          120 -181 vlineto
          -99 49 -57 119 -5 callsubr
          vhcurveto
          65 vlineto
          -2 -14 -22 -3 -21 297 callgsubr
          57 -13 callgsubr
          20 29 57 26 24 111 callsubr
          vlineto
          endchar
        </CharString>
        <CharString name="dvBH_NA">
          585 256 186 63 callgsubr
          647 -337 151 callgsubr
          -610 -62 443 -110 -254 vlineto
          -74 -43 -27 -53 -14 hvcurveto
          -118 127 hlineto
          83 -43 47 -96 -97 -42 -47 -83 -26 4 -25 177 callsubr
          26 23 vvcurveto
          38 10 27 57 56 11 -26 -39 vhcurveto
          -125 -70 vlineto
          -100 -40 -42 -80 hvcurveto
          -94 vlineto
          -80 40 -44 100 99 41 44 80 vhcurveto
          153 115 -151 vlineto
          -83 43 -43 93 92 -85 callgsubr
          130 -415 hlineto
          -200 415 rmoveto
          85 callsubr
          38 14 23 52 vhcurveto
          endchar
        </CharString>
        <CharString name="dvBH_R">
          33 496 427 rmoveto
          -163 100 hlineto
          173 callgsubr
          -43 -47 -83 -22 4 -25 0 vhcurveto
          73 hlineto
          0 -5 22 23 217 callsubr
          -99 -41 -43 -80 hvcurveto
          -51 vlineto
          -80 41 -44 99 99 41 44 80 vhcurveto
          111 165 vlineto
          -82 vmoveto
          -302 -330 rlineto
          91 hlineto
          96 104 44 46 51 71 20 31 rlinecurve
          -235 50 97 callsubr
          endchar
        </CharString>
        <CharString name="dvBH_RA">
          213 459 240 -21 callgsubr
          -99 -41 -43 -80 hvcurveto
          -51 vlineto
          -80 41 -44 99 99 41 44 80 vhcurveto
          111 128 vlineto
          -198 -110 97 callsubr
          endchar
        </CharString>
        <CharString name="dvBH_R_YA">
          511 256 254 rmoveto
          -38 -10 -23 -60 -59 -11 23 38 vhcurveto
          39 vlineto
          38 11 23 1 callgsubr
          72 62 rmoveto
          111 vlineto
          173 callgsubr
          -43 -47 -83 -6 1 -34 150 callsubr
          -1 33 5 40 callsubr
          -109 284 callgsubr
          -42 vlineto
          -24 callsubr
          101 83 vlineto
          17 14 -2 -7 9 hvcurveto
          -86 vlineto
          -12 1 -12 1 -11 vhcurveto
          -248 -271 rlineto
          91 hlineto
          96 104 28 29 31 40 24 32 rlinecurve
          -53 31 62 -19 73 hhcurveto
          63 36 15 21 19 hvcurveto
          -121 -103 callgsubr
          -538 -62 126 vlineto
          50 15 -25 -42 hvcurveto
          -63 vlineto
          -50 -20 -17 -60 -3 vhcurveto
          17 -14 -26 9 -41 hhcurveto
          104 -152 rmoveto
          70 246 callgsubr
          71 vlineto
          38 -12 22 -13 7 vhcurveto
          134 -345 hlineto
          -63 -6 -29 -30 -81 hhcurveto
          -91 -30 37 75 hvcurveto
          endchar
        </CharString>
        <CharString name="dvBH_VA">
          440 687 143 56 callsubr
          -89 -49 -40 -65 -11 hvcurveto
          -119 8 callsubr
          119 -135 194 callsubr
        </CharString>
        <CharString name="dvBH_YA">
          511 256 186 95 callgsubr
          101 61 callsubr
          151 hmoveto
          19 15 -3 -8 8 hvcurveto
          -79 vlineto
          -132 92 -75 callsubr
          -538 -62 183 183 callsubr
          -52 -21 -17 -62 -2 vhcurveto
          16 -14 -26 8 -40 hhcurveto
          -86 117 hlineto
          173 callgsubr
          -43 -47 -83 -23 5 -28 158 callgsubr
          -115 -70 vlineto
          -99 -41 -41 -81 hvcurveto
          -104 vlineto
          -80 41 -44 99 100 40 44 80 vhcurveto
          164 vlineto
          322 175 rmoveto
          43 -8 -98 callsubr
          80 1 48 36 82 vvcurveto
          endchar
        </CharString>
        <CharString name="dvB_BA">
          287 537 492 rmoveto
          178 callgsubr
          -103 -55 -44 -89 hvcurveto
          -121 vlineto
          -177 139 -32 callsubr
          59 39 15 27 24 vhcurveto
          -28 27 43 -14 58 hhcurveto
          43 30 8 4 11 hvcurveto
          -80 68 -101 callsubr
          -726 -62 563 vlineto
          -333 -459 293 callgsubr
          -1 vlineto
          -39 -4 -25 -21 -60 hhcurveto
          252 hmoveto
          -44 callsubr
        </CharString>
        <CharString name="dvB_BHA">
          451 -26 590 rmoveto
          266 62 -266 hlineto
          527 -466 63 callsubr
          -298 -206 rmoveto
          -69 89 callgsubr
          -60 hhcurveto
          298 269 rmoveto
          248 callsubr
          -25 139 callgsubr
          52 37 12 22 24 vhcurveto
          -28 22 37 -14 57 hhcurveto
          100 40 44 80 hvcurveto
          153 126 -337 -103 callgsubr
          -167 -252 -124 127 vlineto
          173 callgsubr
          -43 -47 -83 -24 4 -27 177 callsubr
          29 20 113 callgsubr
        </CharString>
        <CharString name="dvB_BH_RA">
          453 -25 590 rmoveto
          269 62 -269 hlineto
          724 -412 -21 callgsubr
          -99 -41 -43 -80 hvcurveto
          -51 139 callgsubr
          81 44 29 50 17 vhcurveto
          -12 22 28 -6 37 hhcurveto
          99 41 44 80 hvcurveto
          111 128 vlineto
          -496 -233 rmoveto
          -69 89 callgsubr
          -60 hhcurveto
          298 123 97 callsubr
          endchar
        </CharString>
        <CharString name="dvB_DA">
          268 115 callsubr
          176 -138 1 -4 0 -5 1 -4 rlinecurve
          -32 -7 -26 -18 -55 hhcurveto
          395 111 rmoveto
          -70 -96 hlineto
          -5 -26 -19 -3 -33 hhcurveto
          -64 335 callgsubr
          163 192 callsubr
          64 vhcurveto
          142 155 96 62 -706 -62 538 106 callgsubr
          -119 137 callsubr
          60 39 15 29 23 vhcurveto
          -26 27 40 -14 53 hhcurveto
          36 23 3 6 25 hvcurveto
          -88 70 vlineto
          endchar
        </CharString>
        <CharString name="dvB_DHA">
          337 203 131 rmoveto
          -69 89 callgsubr
          -60 hhcurveto
          104 459 rmoveto
          0 -10 81 callgsubr
          -12 139 callgsubr
          60 40 16 28 23 vhcurveto
          -34 32 52 -16 64 hhcurveto
          49 33 6 8 28 hvcurveto
          -21 callsubr
          -500 -62 hlineto
          endchar
        </CharString>
        <CharString name="dvB_DH_VA">
          573 207 callsubr
          617 362 rmoveto
          59 callsubr
          -16 2 -14 3 -13 vhcurveto
          -8 -33 -37 -5 -33 -44 callgsubr
          -472 -62 331 140 callgsubr
          -26 -1 0 138 callsubr
          67 42 20 36 22 vhcurveto
          -29 33 50 -14 62 hhcurveto
          48 51 11 10 39 hvcurveto
          -36 callsubr
        </CharString>
        <CharString name="dvB_JA">
          479 597 364 rmoveto
          312 callsubr
          92 62 -915 53 callgsubr
          -483 156 128 callsubr
        </CharString>
        <CharString name="dvB_JHA">
          564 203 125 rmoveto
          -69 89 callgsubr
          -60 hhcurveto
          345 126 rmoveto
          62 17 -26 -39 hvcurveto
          -40 vlineto
          -39 -21 -26 -64 -27 -26 3 6 -23 58 callgsubr
          -1003 -62 643 -85 -86 hlineto
          -100 195 callgsubr
          -8 vlineto
          -23 4 -20 8 -17 vhcurveto
          -104 -67 hlineto
          -175 137 rlineto
          33 6 23 20 58 hhcurveto
          27 24 -5 0 hvcurveto
          63 vlineto
          0 -26 5 -29 -109 -46 -49 -86 vhcurveto
          -168 309 callgsubr
          58 vlineto
          175 63 rmoveto
          -59 1 -15 23 37 vvcurveto
          6 vlineto
          37 16 22 60 vhcurveto
          158 150 121 -276 hlineto
          endchar
        </CharString>
        <CharString name="dvB_J_YA">
          768 265 157 rmoveto
          -5 -16 17 23 -21 hvcurveto
          94 2 41 12 19 vvcurveto
          113 vlineto
          14 -23 10 -50 6 vhcurveto
          29 -15 -43 35 -41 hhcurveto
          -29 4 -13 -9 -2 -14 rrcurveto
          5 18 -18 -24 21 hvcurveto
          -98 -1 -44 -12 -20 vvcurveto
          -113 vlineto
          -15 23 -10 52 -5 vhcurveto
          -30 15 41 -34 44 hhcurveto
          32 -3 13 7 1 17 rrcurveto
          -152 495 rmoveto
          -62 112 62 vlineto
          679 -129 rmoveto
          43 -7 -85 callsubr
          -44 hhcurveto
          -91 295 callgsubr
          81 vlineto
          80 1 47 36 82 vvcurveto
          110 -464 rmoveto
          -103 callgsubr
          -889 -62 534 hlineto
          0 8 0 callgsubr
          -51 vlineto
          -47 -17 -18 -49 -5 vhcurveto
          67 -4 -46 25 -78 hhcurveto
          -217 -66 93 hlineto
          0 9 -23 -44 vvcurveto
          -159 vlineto
          -46 -25 -29 -64 -35 -68 16 8 -26 vhcurveto
          -18 -65 rlineto
          -9 29 70 -16 50 111 callgsubr
          163 256 callsubr
          33 hlineto
          59 25 -6 -46 hvcurveto
          -121 vlineto
          -132 92 -41 108 45 40 6 5 23 vhcurveto
          -723 141 rmoveto
          9 -61 79 -44 51 vhcurveto
          16 0 0 0 hvcurveto
          33 28 -1 -2 22 hvcurveto
          4 -8 2 -7 -6 vvcurveto
          -177 -132 rmoveto
          121 vlineto
          -9 64 -83 45 -52 vhcurveto
          -7 -7 0 -7 hhcurveto
          -33 -28 1 2 -22 hvcurveto
          -3 7 -2 7 6 vvcurveto
          endchar
        </CharString>
        <CharString name="dvB_JxA">
          479 597 201 rmoveto
          163 vlineto
          312 callsubr
          95 62 -918 53 callgsubr
          -287 -187 rmoveto
          -34 -11 100 callgsubr
          34 33 12 19 26 25 -11 20 -34 hvcurveto
          -196 343 128 callsubr
        </CharString>
        <CharString name="dvB_LA">
          480 204 131 293 callgsubr
          -4 vlineto
          -37 -5 -25 -20 -59 hhcurveto
          593 459 rmoveto
          95 62 -918 -62 751 129 callgsubr
          -97 -46 -51 -83 hvcurveto
          -96 vlineto
          -177 139 -32 callsubr
          43 33 8 15 23 vhcurveto
          -59 20 50 -32 90 96 callgsubr
          vlineto
          endchar
        </CharString>
        <CharString name="dvB_L_YA">
          772 207 callsubr
          706 392 -67 callsubr
          -79 141 rmoveto
          0 8 325 callgsubr
          58 -13 -41 36 -78 hhcurveto
          -50 -30 320 callsubr
          -44 -51 -83 hvcurveto
          -94 138 callsubr
          42 32 8 14 23 vhcurveto
          -58 19 49 -32 90 8 48 1 5 hhcurveto
          65 vlineto
          -5 -48 -1 -6 297 callgsubr
          59 13 -29 -39 vhcurveto
          -138 72 138 vlineto
          41 11 27 54 192 callgsubr
          -88 vlineto
          -132 92 -41 108 46 39 -62 callsubr
          -1210 -62 vlineto
          endchar
        </CharString>
        <CharString name="dvB_NA">
          430 200 438 rmoveto
          66 19 -25 -48 hvcurveto
          -111 vlineto
          -170 131 rlineto
          33 6 22 20 57 hhcurveto
          -307 vmoveto
          -68 -18 28 45 hvcurveto
          124 vlineto
          171 -131 rlineto
          -43 -3 -22 -23 -60 hhcurveto
          476 284 rmoveto
          -415 -103 callgsubr
          -869 -62 702 266 callsubr
          -42 -32 -9 -17 -22 hvcurveto
          30 -23 -39 17 -64 hhcurveto
          -109 -46 -48 -86 hvcurveto
          -165 vlineto
          -86 46 -48 109 52 36 12 20 24 vhcurveto
          -26 22 36 -14 52 -67 callgsubr
        </CharString>
        <CharString name="dvB_R">
          -157 37 -70 rmoveto
          95 hlineto
          150 145 rlineto
          52 49 28 26 65 vvcurveto
          156 311 callgsubr
          -156 vlineto
          -82 43 -48 106 -3 vhcurveto
          -223 508 rmoveto
          408 62 -408 hlineto
          232 -210 rmoveto
          66 22 -25 -48 hvcurveto
          -106 vlineto
          -174 127 rlineto
          33 6 23 19 57 hhcurveto
          -299 vmoveto
          -69 -19 28 45 hvcurveto
          117 vlineto
          176 -127 rlineto
          -41 -4 -23 -22 -61 hhcurveto
          endchar
        </CharString>
        <CharString name="dvB_RA">
          42 292 492 rmoveto
          178 callgsubr
          -103 -55 -44 -89 hvcurveto
          -149 197 callsubr
          -108 68 -101 callsubr
          -481 -62 318 vlineto
          -82 -438 107 callsubr
        </CharString>
        <CharString name="dvB_SA">
          452 115 callsubr
          177 -138 rlineto
          -16 vlineto
          -30 -8 -26 -17 -53 hhcurveto
          391 -118 -86 callsubr
          156 -287 -103 callgsubr
          -891 -62 521 hlineto
          -96 callgsubr
          126 -72 -197 vlineto
          -175 137 rlineto
          32 6 23 20 58 hhcurveto
          16 15 -2 0 hvcurveto
          63 vlineto
          0 -17 2 -18 -109 -46 -48 -86 vhcurveto
          -169 vlineto
          -86 49 -48 110 41 32 7 14 24 vhcurveto
          -62 21 59 -32 86 hhcurveto
          59 44 10 8 26 hvcurveto
          103 337 rmoveto
          -126 hlineto
          -76 callgsubr
          130 hlineto
          endchar
        </CharString>
        <CharString name="dvB_SHA">
          447 -26 590 rmoveto
          265 62 -265 hlineto
          719 hmoveto
          303 callgsubr
          -656 -521 293 callgsubr
          -4 vlineto
          -37 -5 -25 -20 -59 hhcurveto
          392 392 rmoveto
          83 -48 51 -103 -103 -49 -51 -83 -17 3 -19 1 -4 vhcurveto
          72 hlineto
          -1 4 -2 16 18 vvcurveto
          38 16 31 63 63 16 -30 -38 vhcurveto
          -137 vlineto
          -39 -16 -29 -63 -31 -29 6 7 -19 vhcurveto
          74 -73 -153 vlineto
          -177 139 -32 callsubr
          43 33 8 15 24 vhcurveto
          -59 23 60 -35 83 hhcurveto
          54 36 8 10 32 hvcurveto
          -72 callsubr
          endchar
        </CharString>
        <CharString name="dvB_TA">
          293 204 131 293 callgsubr
          -40 -4 -24 -21 -61 hhcurveto
          244 -65 rmoveto
          -60 callgsubr
          -732 -62 565 -100 vlineto
          134 callgsubr
          -103 -50 -53 -83 hvcurveto
          -116 vlineto
          -178 140 -32 callsubr
          40 31 7 13 23 vhcurveto
          -56 12 39 -33 78 hhcurveto
          22 hlineto
          endchar
        </CharString>
        <CharString name="dvB_VA">
          286 204 131 rmoveto
          -70 89 callgsubr
          -59 hhcurveto
          327 362 rmoveto
          4 -10 230 callsubr
          -118 62 callsubr
          110 57 39 15 26 23 vhcurveto
          -27 25 39 -14 56 298 callgsubr
          -724 -62 557 vlineto
          2 -447 -94 callgsubr
          endchar
        </CharString>
        <CharString name="dvB_YA">
          354 204 131 293 callgsubr
          -40 -4 -24 -21 -61 hhcurveto
          285 392 -63 callgsubr
          -5 137 callsubr
          72 44 22 40 21 vhcurveto
          -33 37 55 -12 59 17 callsubr
          -792 -62 vlineto
          endchar
        </CharString>
        <CharString name="dvC">
          -138 324 279 callsubr
          11 -449 rmoveto
          -9 -27 -40 -6 -30 hhcurveto
          -62 -24 15 callsubr
          47 -49 103 35 46 7 8 24 vhcurveto
          endchar
        </CharString>
        <CharString name="dvCA">
          78 159 336 rmoveto
          30 callgsubr
          -140 vlineto
          -86 46 -49 103 35 29 5 8 23 vhcurveto
          -74 82 callgsubr
          -516 -62 349 246 callsubr
          -30 hhcurveto
          -62 -23 24 48 hvcurveto
          endchar
        </CharString>
        <CharString name="dvCH">
          124 258 486 rmoveto
          -64 vlineto
          0 24 10 30 62 14 -26 -45 vhcurveto
          -190 155 callgsubr
          331 62 -562 -62 117 hlineto
          145 callsubr
          199 vlineto
          74 -38 53 -97 vhcurveto
          -35 1 -31 -10 0 vvcurveto
          endchar
        </CharString>
        <CharString name="dvCHA">
          124 62 389 274 callsubr
          -105 57 -42 145 146 53 205 callgsubr
          151 62 -563 -62 98 -9 callsubr
        </CharString>
        <CharString name="dvCH_R">
          -15 callsubr
          268 -693 -42 callgsubr
          endchar
        </CharString>
        <CharString name="dvCH_RA">
          -15 callsubr
          endchar
        </CharString>
        <CharString name="dvCH_R_YA">
          623 258 18 rmoveto
          4 hlineto
          71 -141 247 callgsubr
          91 14 35 44 88 vvcurveto
          199 vlineto
          24 -3 21 -7 17 vhcurveto
          177 317 callsubr
          -9 vlineto
          -50 -22 -12 -69 vhcurveto
          -37 -56 hlineto
          -131 84 -42 108 43 43 6 6 31 vhcurveto
          -80 -103 callgsubr
          -1064 -62 98 211 callsubr
          -134 vlineto
          108 callgsubr
          -86 39 -44 94 -13 326 callgsubr
          70 141 rlineto
          499 117 300 callsubr
          16 vlineto
          83 -42 41 -96 vhcurveto
          -237 94 485 229 callsubr
          -623 388 rmoveto
          -56 callgsubr
        </CharString>
        <CharString name="dvCH_YA">
          608 926 hmoveto
          127 callsubr
          -1046 -62 117 vlineto
          145 callsubr
          220 vlineto
          14 -1 13 -3 12 vhcurveto
          152 317 callsubr
          -7 181 callsubr
          43 6 6 32 vhcurveto
          -80 vlineto
          -596 507 rmoveto
          -64 vlineto
          0 24 11 30 62 14 -26 -46 vhcurveto
          -211 155 callgsubr
          649 -443 hlineto
          -7 -33 -38 -5 -43 hhcurveto
          314 callsubr
          13 vlineto
          83 -43 41 -96 vhcurveto
          -193 hlineto
          15 -21 -29 8 -38 hhcurveto
          -35 -31 -10 0 hvcurveto
          endchar
        </CharString>
        <CharString name="dvC_CA">
          324 406 336 rmoveto
          206 callgsubr
          101 62 -221 -62 46 hlineto
          0 -9 -30 -54 vvcurveto
          -140 vlineto
          -22 3 -20 6 -16 vhcurveto
          -7 -26 -30 -5 -35 hhcurveto
          -63 -29 21 51 hvcurveto
          138 vlineto
          206 callgsubr
          70 62 -227 -64 84 178 callsubr
          -140 vlineto
          -86 56 -49 103 53 55 13 11 29 vhcurveto
          -16 24 33 -8 43 hhcurveto
          34 29 5 8 24 hvcurveto
          -74 -103 callgsubr
          -763 -62 596 246 callsubr
          -31 hhcurveto
          -61 -23 24 48 hvcurveto
          endchar
        </CharString>
        <CharString name="dvC_CHA">
          405 343 389 274 callsubr
          -9 0 -9 1 -8 vhcurveto
          -7 -25 -31 -6 -34 hhcurveto
          -63 -26 15 callsubr
          53 -49 104 44 43 9 9 27 vhcurveto
          -43 28 57 -18 96 hhcurveto
          146 53 43 108 hvcurveto
          94 callgsubr
          -844 -62 379 -9 callsubr
        </CharString>
        <CharString name="dvC_CH_VA">
          406 296 callsubr
          -15 289 callsubr
          -9 0 -9 1 -8 vhcurveto
          -7 -25 -32 -6 -34 hhcurveto
          -63 -26 15 callsubr
          53 -49 104 45 43 9 9 27 vhcurveto
          11 -18 17 -13 23 -10 rrcurveto
          -26 -19 -16 -28 -41 vvcurveto
          -36 vlineto
          -86 55 -42 100 37 30 4 7 25 vhcurveto
          -59 72 311 vlineto
          36 24 15 39 57 vvcurveto
          199 vlineto
          62 -19 41 -52 14 vhcurveto
          105 151 62 -844 -62 380 vlineto
          0 -11 -23 -44 vvcurveto
          184 -675 rmoveto
          -67 -23 26 42 hvcurveto
          34 vlineto
          42 21 26 66 vhcurveto
          0 vlineto
          5 5 0 5 hhcurveto
          29 26 2 3 22 hvcurveto
          -164 vlineto
          -8 -28 -26 -3 -35 hhcurveto
          -111 675 rmoveto
          43 10 24 0 vhcurveto
          175 -95 hlineto
          -36 -27 -8 0 hvcurveto
          -63 vlineto
          0 24 8 31 61 13 99 callgsubr
          -105 -105 -24 212 callgsubr
          19 23 64 340 callsubr
          endchar
        </CharString>
        <CharString name="dvC_MA">
          483 606 346 callgsubr
          -193 -246 -70 callsubr
          193 -369 rmoveto
          67 callgsubr
          -921 -62 562 176 callsubr
          -17 2 -16 4 -14 vhcurveto
          -6 -25 -29 -5 -30 hhcurveto
          -63 -26 15 callsubr
          53 -49 104 49 52 13 9 26 vhcurveto
          -15 23 31 -7 41 171 callsubr
        </CharString>
        <CharString name="dvC_NA">
          471 718 415 rmoveto
          -415 -103 callgsubr
          -918 -62 751 301 callgsubr
          -18 2 -16 4 -14 vhcurveto
          -7 -27 -33 -5 -32 hhcurveto
          -63 -26 15 callsubr
          53 -49 103 53 49 12 12 31 vhcurveto
          -17 22 32 -8 40 -67 callgsubr
        </CharString>
        <CharString name="dvC_R">
          -138 324 279 callsubr
          25 -443 rmoveto
          -7 -27 -32 -5 -42 hhcurveto
          -71 -25 24 47 hvcurveto
          130 vlineto
          30 callgsubr
          -131 vlineto
          -87 47 -49 111 vhcurveto
          5 5 0 5 hhcurveto
          -148 -129 304 callsubr
          endchar
        </CharString>
        <CharString name="dvC_RA">
          79 160 336 rmoveto
          211 callgsubr
          62 -256 -64 81 178 callsubr
          -97 vlineto
          -81 39 -49 91 -5 vhcurveto
          -144 -149 rlineto
          90 hlineto
          155 160 rlineto
          2 1 1 2 hhcurveto
          -116 -103 callgsubr
          -517 -62 350 -412 vlineto
          -9 -27 -22 -4 -30 hhcurveto
          -62 -23 24 47 hvcurveto
          endchar
        </CharString>
        <CharString name="dvC_YA">
          395 531 523 -63 callgsubr
          -42 9 -32 16 -25 vhcurveto
          -10 -31 -38 -9 -39 hhcurveto
          -63 -27 25 47 hvcurveto
          124 vlineto
          30 callgsubr
          -126 vlineto
          -86 54 -49 107 74 56 23 14 29 vhcurveto
          -19 35 44 -8 47 17 callsubr
          -834 -62 vlineto
          endchar
        </CharString>
        <CharString name="dvCandrabindu">
          -387 -105 841 rmoveto
          33 10 18 25 25 -10 244 callsubr
          95 3 24 callgsubr
          endchar
        </CharString>
        <CharString name="dvD">
          19 42 207 rmoveto
          -80 callsubr
          -458 -62 290 -89 -70 hlineto
          -103 -49 -41 -88 hvcurveto
          420 -582 -42 callgsubr
          endchar
        </CharString>
        <CharString name="dvDA">
          19 42 207 rmoveto
          -80 callsubr
          -458 -62 290 -89 -70 hlineto
          -103 -49 -41 -88 hvcurveto
          endchar
        </CharString>
        <CharString name="dvDA_mvR">
          19 42 266 rmoveto
          -86 55 -49 100 33 26 3 6 25 vhcurveto
          -53 vlineto
          -5 -4 0 -2 hhcurveto
          -89 -52 -39 -98 -99 60 -39 89 29 18 2 4 29 hvcurveto
          69 vlineto
          -4 -25 -24 -2 -26 hhcurveto
          -42 -39 6 63 63 35 5 43 20 28 -2 -4 27 hvcurveto
          280 -70 -87 vlineto
          -5 -23 -21 -4 -35 hhcurveto
          -63 -25 28 43 hvcurveto
          104 186 callgsubr
        </CharString>
        <CharString name="dvDD">
          27 36 callgsubr
          -17 -337 -42 callgsubr
          endchar
        </CharString>
        <CharString name="dvDDA">
          26 36 callgsubr
          endchar
        </CharString>
        <CharString name="dvDDH">
          292 callgsubr
          -88 48 -52 109 306 callsubr
          vhcurveto
          -52 callsubr
          131 154 101 62 -461 -62 289 -87 hlineto
          92 -713 -42 callgsubr
          endchar
        </CharString>
        <CharString name="dvDDHA">
          292 callgsubr
          -88 48 -52 109 306 callsubr
          vhcurveto
          -52 callsubr
          131 154 101 62 -461 -62 289 -87 hlineto
          endchar
        </CharString>
        <CharString name="dvDDH_DDHA">
          34 299 callsubr
          -47 15 -35 30 -24 vhcurveto
          -31 -21 -15 -33 -46 vvcurveto
          -149 vlineto
          -87 52 -50 108 109 50 49 86 vhcurveto
          14 vlineto
          82 -50 39 -71 -29 -21 -8 0 vhcurveto
          -60 vlineto
          0 14 8 27 36 24 -16 -46 vhcurveto
          -11 vlineto
          -42 -17 -31 -72 -72 -16 32 42 vhcurveto
          147 vlineto
          44 17 26 66 vhcurveto
          6 hlineto
          109 50 49 86 hvcurveto
          271 callsubr
          26 37 24 -17 -46 vhcurveto
          -12 222 callsubr
          109 62 -472 -62 291 -87 hlineto
          endchar
        </CharString>
        <CharString name="dvDDH_R">
          23 359 -311 -42 callgsubr
          -78 814 rmoveto
          -103 -47 -44 -85 hvcurveto
          -239 vlineto
          -66 27 -46 60 -19 vhcurveto
          -77 -144 235 callgsubr
          -77 145 rlineto
          57 19 26 44 65 vvcurveto
          -52 callsubr
          131 154 101 62 -461 -62 289 -87 hlineto
          endchar
        </CharString>
        <CharString name="dvDDH_RA">
          292 callgsubr
          -66 27 -46 59 -18 vhcurveto
          -76 216 callgsubr
          144 rlineto
          57 19 26 44 65 vvcurveto
          -52 callsubr
          131 154 101 62 -461 -62 289 -87 hlineto
          endchar
        </CharString>
        <CharString name="dvDDH_VA">
          41 299 callsubr
          -59 23 -40 49 -19 vhcurveto
          -47 -11 -23 -34 -45 vvcurveto
          -29 13 -48 32 239 callsubr
          -30 184 rlineto
          38 22 18 36 52 vvcurveto
          271 callsubr
          27 36 24 -18 -44 vhcurveto
          -13 222 callsubr
          116 62 -479 -62 291 -87 hlineto
          -73 -579 344 callgsubr
          19 2 23 14 16 vhcurveto
          -3 16 19 -2 21 hhcurveto
          24 21 2 5 19 hvcurveto
          -31 -3 -4 -136 -4 hhcurveto
          -26 -5 -22 2 -28 7 rrcurveto
          endchar
        </CharString>
        <CharString name="dvDDH_YA">
          508 210 -5 rmoveto
          306 callsubr
          hvcurveto
          -52 callsubr
          304 hlineto
          55 11 -23 -39 hvcurveto
          -15 181 callsubr
          43 6 6 32 vhcurveto
          -80 72 127 callsubr
          -946 -62 289 -87 -60 vlineto
          -103 -47 -44 -85 hvcurveto
          -239 vlineto
          -88 48 -52 109 vhcurveto
          430 140 rmoveto
          314 callsubr
          21 vlineto
          83 -43 42 -96 vhcurveto
          -171 87 420 -443 hlineto
          -7 -33 -38 -5 -43 hhcurveto
          endchar
        </CharString>
        <CharString name="dvDDHxA">
          292 callgsubr
          -88 48 291 callgsubr
          -72 -29 -20 -8 0 vhcurveto
          -65 vlineto
          0 14 8 27 35 24 -17 -45 vhcurveto
          -40 vlineto
          -43 -17 -31 -69 -69 -17 31 43 vhcurveto
          236 231 callsubr
          131 154 101 62 -461 -62 289 -87 hlineto
          -54 -678 rmoveto
          -91 callgsubr
          endchar
        </CharString>
        <CharString name="dvDD_DDA">
          37 37 98 rmoveto
          13 -3 14 -2 15 -3 rrcurveto
          -13 -18 -7 -23 -27 vvcurveto
          -85 57 -27 84 vhcurveto
          34 hlineto
          55 17 -17 -37 hvcurveto
          -15 vlineto
          -46 -22 -16 -76 -45 -63 8 11 -48 vhcurveto
          -63 vlineto
          -10 45 56 -9 55 hhcurveto
          118 54 35 89 hvcurveto
          15 vlineto
          84 -49 32 -97 vhcurveto
          -37 hlineto
          -54 -16 16 37 41 17 15 53 hvcurveto
          0 vlineto
          3 3 0 3 hhcurveto
          118 54 35 89 hvcurveto
          283 callgsubr
          -53 -17 15 37 hvcurveto
          4 vlineto
          38 17 15 53 vhcurveto
          270 callsubr
          -34 -77 hvcurveto
          -6 vlineto
          -85 52 -27 93 224 callsubr
        </CharString>
        <CharString name="dvDD_DDHA">
          37 37 98 rmoveto
          14 -3 16 -3 16 -2 rrcurveto
          -20 -22 -11 -29 -36 vvcurveto
          -141 vlineto
          -86 52 -51 108 109 50 49 87 vhcurveto
          13 vlineto
          83 -50 38 -71 -29 -21 -8 0 vhcurveto
          -59 vlineto
          0 14 8 27 36 24 -18 -44 vhcurveto
          -11 vlineto
          -42 -17 -32 -72 -72 -16 32 42 vhcurveto
          147 vlineto
          43 16 26 61 1 vhcurveto
          0 vlineto
          2 1 0 2 hhcurveto
          117 55 34 90 hvcurveto
          283 callgsubr
          -54 -16 15 38 40 17 16 53 hvcurveto
          270 callsubr
          -33 -81 hvcurveto
          -4 vlineto
          -84 53 -27 92 224 callsubr
        </CharString>
        <CharString name="dvDD_R">
          25 366 -54 callsubr
          25 -6 25 -4 26 -2 -73 -138 rcurveline
          76 hlineto
          67 135 rlineto
          3 4 0 3 hhcurveto
          68 -135 247 callgsubr
          59 19 30 41 63 vvcurveto
          -17 -438 -42 callgsubr
          endchar
        </CharString>
        <CharString name="dvDD_RA">
          27 55 callgsubr
          25 -6 25 -4 26 -2 264 callgsubr
          5 4 0 1 5 hvcurveto
          66 -133 rlineto
          76 hlineto
          -77 144 rlineto
          58 19 29 41 62 vvcurveto
          endchar
        </CharString>
        <CharString name="dvDD_VA">
          40 38 98 rmoveto
          20 -4 24 -4 25 -3 rrcurveto
          -31 -15 -16 -30 -37 vvcurveto
          -29 12 -48 33 239 callsubr
          -31 181 rlineto
          41 19 19 34 53 vvcurveto
          283 callgsubr
          -53 -17 15 37 hvcurveto
          4 vlineto
          37 17 16 53 vhcurveto
          154 146 101 62 -478 -62 303 -87 -77 hlineto
          -98 -48 -34 -77 hvcurveto
          -6 vlineto
          -85 52 -27 92 vhcurveto
          36 hlineto
          56 16 -17 -38 1 hvcurveto
          -14 vlineto
          -48 -26 -14 -73 -44 -74 7 11 -52 vhcurveto
          157 -237 344 callgsubr
          18 2 21 11 16 vhcurveto
          -1 17 16 -1 16 hhcurveto
          29 26 2 5 21 hvcurveto
          -1 -3 0 -2 -3 vvcurveto
          -2 -3 -5 -157 -4 hhcurveto
          -27 -5 -21 2 -28 7 rrcurveto
          endchar
        </CharString>
        <CharString name="dvDD_YA">
          509 193 -7 rmoveto
          117 58 46 88 hvcurveto
          33 vlineto
          90 callgsubr
          -61 -16 24 37 hvcurveto
          32 vlineto
          38 17 23 60 vhcurveto
          310 hlineto
          55 11 -23 -39 hvcurveto
          -19 vlineto
          -49 -22 -12 -69 vhcurveto
          -37 -57 hlineto
          -131 84 -42 108 43 43 6 6 31 vhcurveto
          -80 -103 callgsubr
          -948 232 callgsubr
          vlineto
          157 callgsubr
          -10 43 42 -5 51 hhcurveto
          448 142 345 callsubr
          35 81 hvcurveto
          25 vlineto
          83 -42 40 -96 vhcurveto
          -168 85 416 229 callsubr
          endchar
        </CharString>
        <CharString name="dvDDxA">
          27 209 -175 rmoveto
          34 11 98 callgsubr
          159 335 -51 callgsubr
          -465 -62 293 -85 -69 hlineto
          -101 -48 -40 -83 hvcurveto
          -6 callsubr
        </CharString>
        <CharString name="dvDH">
          -94 372 146 rmoveto
          -8 -28 -53 -10 -43 hhcurveto
          -72 -44 21 65 hvcurveto
          50 -25 callsubr
          -56 vlineto
          -99 74 -48 108 47 51 9 9 32 vhcurveto
          endchar
        </CharString>
        <CharString name="dvDHA">
          107 76 590 rmoveto
          0 -10 81 callgsubr
          -56 vlineto
          -100 73 -47 109 49 33 6 8 28 vhcurveto
          -21 callsubr
          -269 -62 hlineto
          endchar
        </CharString>
        <CharString name="dvDH_MA">
          503 557 186 rmoveto
          -39 -11 -22 -59 22 callsubr
          -584 -62 225 176 callsubr
          -15 1 -14 3 -12 vhcurveto
          -7 -30 -36 -6 -36 hhcurveto
          -73 -44 21 65 hvcurveto
          48 -25 callsubr
          -54 317 callgsubr
          56 50 13 10 34 vhcurveto
          -17 22 33 -9 45 hhcurveto
          99 41 43 80 hvcurveto
          221 callgsubr
          endchar
        </CharString>
        <CharString name="dvDH_NA">
          490 735 415 rmoveto
          -415 82 callgsubr
          -587 -62 420 -110 -254 vlineto
          -39 callsubr
          -169 vlineto
          -17 2 -14 3 -14 vhcurveto
          -7 -30 -36 -6 -35 hhcurveto
          -73 -44 21 65 hvcurveto
          50 -25 callsubr
          -56 317 callgsubr
          54 51 13 10 35 vhcurveto
          -17 22 31 -8 41 hhcurveto
          93 43 43 83 hvcurveto
          159 vlineto
          42 -11 26 2 vvcurveto
          -70 hmoveto
          -106 callgsubr
          endchar
        </CharString>
        <CharString name="dvDH_N_YA">
          799 538 408 119 callsubr
          -150 vlineto
          -39 -14 -22 -52 -52 -14 23 38 vhcurveto
          160 vlineto
          38 14 23 52 vhcurveto
          451 115 -103 callsubr
          -78 141 rmoveto
          0 7 325 callgsubr
          61 -12 -53 25 -79 hhcurveto
          -170 282 callgsubr
          -17 2 -15 3 -13 vhcurveto
          -8 -31 -36 -5 -36 hhcurveto
          -73 -44 21 65 hvcurveto
          50 -25 callsubr
          -56 317 callgsubr
          55 53 12 10 35 vhcurveto
          -16 22 31 -8 40 hhcurveto
          92 44 43 83 hvcurveto
          152 vlineto
          42 -11 26 2 vvcurveto
          44 hlineto
          44 33 -10 -30 6 hvcurveto
          -110 vlineto
          -132 93 -75 callsubr
          -870 -62 vlineto
          endchar
        </CharString>
        <CharString name="dvDH_R">
          -94 60 232 rmoveto
          -102 70 -47 115 8 9 0 1 8 vhcurveto
          -149 -130 304 callsubr
          66 vlineto
          -5 -39 -27 -4 -46 hhcurveto
          -77 -44 21 67 hvcurveto
          32 vlineto
          38 24 callsubr
          58 92 callgsubr
          73 62 -246 163 callgsubr
          -60 vlineto
          -45 116 callsubr
          endchar
        </CharString>
        <CharString name="dvDH_RA">
          108 353 161 rmoveto
          71 callsubr
          96 62 -270 -62 101 231 callgsubr
          -65 vlineto
          -45 11 -35 41 -17 vhcurveto
          126 callsubr
        </CharString>
        <CharString name="dvDH_VA">
          342 588 493 rmoveto
          59 callsubr
          -16 2 -14 3 -13 vhcurveto
          -8 -33 -37 -5 -33 -44 callgsubr
          -241 -62 100 140 callgsubr
          -51 317 callgsubr
          48 51 11 10 39 vhcurveto
          -36 callsubr
        </CharString>
        <CharString name="dvDH_YA">
          410 546 523 -47 callsubr
          -241 -62 100 hlineto
          0 -8 -23 -44 vvcurveto
          -50 vlineto
          -45 11 -35 41 -17 vhcurveto
          34 callsubr
        </CharString>
        <CharString name="dvD_BA">
          39 204 137 rmoveto
          27 48 5 6 18 hvcurveto
          -127 vlineto
          -4 0 -4 -4 vvcurveto
          -150 115 rlineto
          9 13 19 4 25 hhcurveto
          -154 122 rmoveto
          -45 16 -33 31 -20 vhcurveto
          -29 -19 -17 -32 -47 vvcurveto
          -45 vlineto
          -86 48 -50 110 111 46 51 87 1 vhcurveto
          307 -70 -122 vlineto
          -4 -21 -38 -5 -28 hhcurveto
          -67 -21 27 40 hvcurveto
          105 342 callsubr
          99 62 -477 296 callgsubr
          -427 rmoveto
          -72 -16 32 44 hvcurveto
          44 vlineto
          7 1 7 1 6 vhcurveto
          155 -120 rlineto
          -13 -13 -22 -7 -34 hhcurveto
          endchar
        </CharString>
        <CharString name="dvD_BHA">
          123 218 -46 rmoveto
          11 -17 4 -21 -30 -22 -33 -23 -18 11 -12 16 -12 17 rcurveline
          -12 17 -4 21 30 22 40 28 rcurveline
          -38 268 rmoveto
          -81 49 -48 91 -5 vhcurveto
          -85 -61 -46 64 -33 46 -47 6 -54 -40 rlinecurve
          -54 -38 -10 -47 33 -46 16 -22 rcurveline
          46 33 -16 22 -11 16 -3 18 30 22 rlinecurve
          29 21 16 -8 12 -16 46 -63 rcurveline
          -39 -29 -56 -41 -8 -48 32 -42 rlinecurve
          14 -19 31 -45 48 -9 57 41 rlinecurve
          56 41 6 48 -31 45 -36 50 rcurveline
          154 109 2 1 rlineto
          -103 70 264 -70 -96 vlineto
          -6 -26 -18 -3 -34 hhcurveto
          -63 -26 27 44 hvcurveto
          98 192 callsubr
          64 vhcurveto
          142 155 98 62 -562 -62 392 272 callsubr
        </CharString>
        <CharString name="dvD_B_RA">
          37 204 189 rmoveto
          31 44 6 8 19 hvcurveto
          -108 vlineto
          -6 0 -6 -1 -5 vhcurveto
          -147 100 rlineto
          7 12 18 4 24 hhcurveto
          -154 122 rmoveto
          -46 16 -32 32 -20 vhcurveto
          -29 -20 -17 -32 -47 vvcurveto
          -22 vlineto
          -82 42 -44 93 -5 vhcurveto
          -107 -106 rlineto
          90 hlineto
          122 123 2 1 2 1 2 1 rlinecurve
          -75 69 428 -69 -73 vlineto
          -6 -18 -32 -7 -38 hhcurveto
          -67 -21 26 41 hvcurveto
          53 342 callsubr
          98 62 -476 296 callgsubr
          -354 rmoveto
          -72 -16 32 45 hvcurveto
          21 vlineto
          8 1 8 1 7 vhcurveto
          154 -102 -4 -4 -4 -3 -5 -2 rlinecurve
          -10 hlineto
          -6 -6 rlineto
          -3 -11 -12 -1 -16 hhcurveto
          endchar
        </CharString>
        <CharString name="dvD_DA">
          26 49 370 rmoveto
          -45 15 -31 30 -18 vhcurveto
          -30 -19 -15 -31 -45 vvcurveto
          -53 vlineto
          -80 54 -45 100 38 25 5 6 22 vhcurveto
          -81 70 228 -70 -85 vlineto
          -5 -18 -27 -6 -34 hhcurveto
          -64 -24 25 39 hvcurveto
          51 192 callsubr
          64 vhcurveto
          93 63 -93 hlineto
          -64 -16 25 39 hvcurveto
          10 192 callsubr
          64 vhcurveto
          142 145 95 62 -464 -62 297 -85 -76 hlineto
          -100 -46 -41 -82 hvcurveto
          endchar
        </CharString>
        <CharString name="dvD_DHA">
          173 199 207 rmoveto
          342 callgsubr
          -75 -31 17 55 vhcurveto
          214 callsubr
          16 58 -16 hlineto
          153 callsubr
          3 hlineto
          142 callgsubr
          94 62 -612 -62 446 302 callsubr
          endchar
        </CharString>
        <CharString name="dvD_GA">
          30 51 236 rmoveto
          -62 29 -43 54 -19 vhcurveto
          -69 vlineto
          -39 -5 -26 -56 -13 -16 3 0 vhcurveto
          -63 vlineto
          0 15 -4 22 93 28 43 82 vhcurveto
          62 vlineto
          1 2 0 1 hhcurveto
          33 25 3 7 26 hvcurveto
          -271 70 445 347 callsubr
          -64 -25 28 43 hvcurveto
          134 192 callsubr
          64 vhcurveto
          142 155 98 62 -469 -62 299 272 callsubr
        </CharString>
        <CharString name="dvD_GHA">
          175 181 -19 rmoveto
          -75 -31 17 55 hvcurveto
          214 callsubr
          63 -87 hlineto
          342 callgsubr
          vhcurveto
          172 91 rmoveto
          142 callgsubr
          95 62 -613 -62 446 302 callsubr
          -20 -63 vlineto
          153 callsubr
          endchar
        </CharString>
        <CharString name="dvD_G_RA">
          29 358 -143 rmoveto
          470 347 callsubr
          -63 -25 28 43 hvcurveto
          92 192 callsubr
          64 vhcurveto
          142 155 96 62 -466 -62 297 -89 -69 hlineto
          -103 -49 -41 -88 hvcurveto
          -94 vlineto
          -61 27 -43 52 -19 vhcurveto
          -51 vlineto
          -39 -5 -26 -56 -13 -16 3 0 vhcurveto
          -63 vlineto
          0 14 -4 23 93 28 43 82 vhcurveto
          43 vlineto
          2 3 0 2 hhcurveto
          33 25 3 7 26 hvcurveto
          -114 vlineto
          -206 -222 rlineto
          83 hlineto
          31 32 63 66 29 37 5 11 rlinecurve
          1 -1 rlineto
          -2 -5 -1 -30 -25 vvcurveto
          -45 vlineto
          endchar
        </CharString>
        <CharString name="dvD_MA">
          248 355 122 rmoveto
          199 -69 -87 vlineto
          -3 -11 -32 -8 -41 hhcurveto
          -66 -22 26 39 hvcurveto
          82 vlineto
          39 16 26 67 vhcurveto
          145 155 152 -468 hlineto
          -62 vmoveto
          -110 72 640 95 62 -687 -62 295 -89 -72 vlineto
          -106 -49 -42 -88 hvcurveto
          -83 vlineto
          -83 53 -47 102 36 35 7 6 18 vhcurveto
          -162 69 51 vlineto
          endchar
        </CharString>
        <CharString name="dvD_NA">
          20 42 224 rmoveto
          -79 46 -43 85 -6 vhcurveto
          -75 -53 -68 -51 -4 -53 34 -40 rlinecurve
          23 -27 41 -3 0 vvcurveto
          48 40 rlineto
          0 -33 7 -15 17 vhcurveto
          -19 23 5 22 34 26 137 100 rcurveline
          -111 70 271 -70 -100 vlineto
          -6 -26 -19 -3 -33 hhcurveto
          -64 -25 27 44 hvcurveto
          145 186 callgsubr
        </CharString>
        <CharString name="dvD_R">
          20 464 -215 -42 callgsubr
          -343 444 rmoveto
          -82 49 -43 92 -4 vhcurveto
          -142 -168 rlineto
          85 hlineto
          150 178 rlineto
          1 2 1 1 hhcurveto
          -118 267 callsubr
          -64 vlineto
          -13 -22 -17 -5 -39 hhcurveto
          -63 335 callgsubr
          141 192 callsubr
          64 vhcurveto
          142 155 96 62 -460 -62 292 272 callsubr
        </CharString>
        <CharString name="dvD_RA">
          20 44 231 9 callgsubr
          -460 -62 292 272 callsubr
        </CharString>
        <CharString name="dvD_VA">
          28 206 167 callgsubr
          -84 418 309 callsubr
          -467 -62 297 302 callsubr
          112 callsubr
        </CharString>
        <CharString name="dvD_YA">
          96 509 652 rmoveto
          -535 -62 182 -73 hlineto
          -58 -2 -46 -25 -75 vvcurveto
          -27 vlineto
          -43 12 -35 42 -17 vhcurveto
          -42 -15 -15 -38 -42 vvcurveto
          -17 vlineto
          -99 64 -39 111 47 42 7 7 31 vhcurveto
          -57 70 -69 callsubr
          vlineto
          -167 hmoveto
          -468 vlineto
          -7 -26 -43 -7 -42 hhcurveto
          -73 -37 13 66 hvcurveto
          11 vlineto
          39 19 27 63 vhcurveto
          31 61 -34 hlineto
          -63 1 -13 25 39 vvcurveto
          21 vlineto
          46 26 11 48 vhcurveto
          30 122 hlineto
          endchar
        </CharString>
        <CharString name="dvE">
          41 356 81 rmoveto
          -9 -28 -44 -10 -49 hhcurveto
          -74 -24 28 48 hvcurveto
          452 77 callsubr
          -480 -62 91 -452 vlineto
          -97 56 -46 112 53 45 10 10 25 vhcurveto
          endchar
        </CharString>
        <CharString name="dvEcandra">
          41 315 852 rmoveto
          -50 -27 -15 -68 203 callsubr
          33 93 vhcurveto
          2 vlineto
          -33 -771 rmoveto
          -9 -27 -45 -10 -50 hhcurveto
          -68 -25 28 44 hvcurveto
          456 77 callsubr
          -480 -62 91 -457 vlineto
          324 callgsubr
          endchar
        </CharString>
        <CharString name="dvEight">
          7 callgsubr
        </CharString>
        <CharString name="dvEyelash">
          -138 -26 590 rmoveto
          395 62 -395 hlineto
          395 -321 rmoveto
          -174 hlineto
          -68 -37 -2 53 hvcurveto
          -70 -5 hlineto
          -93 68 -16 107 vhcurveto
          174 hlineto
          endchar
        </CharString>
        <CharString name="dvEyelash_HA">
          240 252 132 rmoveto
          -85 53 -53 120 49 50 5 8 42 vhcurveto
          63 vlineto
          -8 -48 -39 -3 -51 hhcurveto
          -81 -22 32 44 hvcurveto
          52 vlineto
          39 19 24 63 vhcurveto
          41 hlineto
          57 8 -22 -40 hvcurveto
          -26 67 30 vlineto
          80 -36 41 -91 vhcurveto
          -50 hlineto
          -60 290 callgsubr
          11 vlineto
          37 15 22 59 vhcurveto
          156 149 97 62 -679 -62 510 -85 -84 hlineto
          -100 -46 -38 -81 hvcurveto
          -9 -64 vlineto
          -68 -37 5 52 hvcurveto
          -70 -5 hlineto
          -92 68 -23 107 vhcurveto
          77 hlineto
          9 -15 12 -11 17 -8 rrcurveto
          -35 -17 -18 -31 -46 vvcurveto
          endchar
        </CharString>
        <CharString name="dvEyelash_YA">
          304 440 523 -6 callgsubr
          36 75 hvcurveto
          48 246 callgsubr
          -79 161 257 callsubr
          -85 vlineto
          -58 -26 -14 -81 vhcurveto
          -65 hlineto
          -68 -37 5 53 hvcurveto
          -70 -5 hlineto
          -93 68 -23 107 vhcurveto
          44 -50 hlineto
          -132 92 -36 109 -61 callgsubr
          -743 -62 vlineto
          endchar
        </CharString>
        <CharString name="dvFive">
          67 callsubr
        </CharString>
        <CharString name="dvFour">
          124 callgsubr
        </CharString>
        <CharString name="dvG">
          -133 196 590 rmoveto
          84 62 -306 38 callgsubr
          endchar
        </CharString>
        <CharString name="dvGA">
          94 507 652 rmoveto
          -533 -62 150 -266 hlineto
          143 callgsubr
        </CharString>
        <CharString name="dvGH">
          -104 369 144 rmoveto
          -6 -19 -59 -10 -43 hhcurveto
          -72 -44 21 67 hvcurveto
          44 -37 callgsubr
          67 92 callgsubr
          206 62 -379 185 callgsubr
          111 46 55 10 6 25 vhcurveto
          endchar
        </CharString>
        <CharString name="dvGHA">
          107 519 652 rmoveto
          -545 -62 99 hlineto
          40 callgsubr
        </CharString>
        <CharString name="dvGH_MA">
          501 251 128 rmoveto
          -75 -44 21 67 hvcurveto
          44 -37 callgsubr
          67 92 callgsubr
          408 176 callsubr
          -16 2 -15 3 -13 vhcurveto
          -7 -30 -37 -5 -32 hhcurveto
          304 58 3 callsubr
          -940 185 callgsubr
          116 53 56 13 8 32 vhcurveto
          -15 22 32 -8 42 171 callsubr
        </CharString>
        <CharString name="dvGH_NA">
          490 251 128 rmoveto
          -75 -44 21 67 hvcurveto
          44 -37 callgsubr
          67 92 callgsubr
          589 135 callsubr
          -169 vlineto
          -17 2 -16 4 -14 vhcurveto
          -6 -30 -38 -5 -32 hhcurveto
          485 287 rmoveto
          -415 -103 callgsubr
          -929 -62 99 vlineto
          70 callgsubr
          116 54 56 12 8 31 vhcurveto
          -15 22 31 -8 39 -67 callgsubr
        </CharString>
        <CharString name="dvGH_R">
          -101 365 158 rmoveto
          -5 -39 -27 -4 -46 hhcurveto
          -77 -44 21 67 hvcurveto
          28 -37 callgsubr
          62 92 callgsubr
          219 62 -392 -62 99 hlineto
          0 -7 -23 -44 vvcurveto
          -63 299 callgsubr
          -34 vlineto
          -102 70 -47 115 8 8 0 1 9 vhcurveto
          -149 -130 304 callsubr
          endchar
        </CharString>
        <CharString name="dvGH_RA">
          108 520 652 rmoveto
          -546 -62 101 231 callgsubr
          -65 299 callgsubr
          -26 vlineto
          -102 72 -46 111 vhcurveto
          1 hlineto
          -143 -139 rlineto
          96 hlineto
          153 152 rlineto
          2 -103 73 590 94 hlineto
          -167 hmoveto
          -429 vlineto
          71 callsubr
          endchar
        </CharString>
        <CharString name="dvGH_YA">
          408 251 149 rmoveto
          -75 -44 21 67 hvcurveto
          37 vlineto
          39 24 callsubr
          52 92 callgsubr
          319 171 callgsubr
          -38 334 callsubr
          -9 -38 -44 -7 -34 hhcurveto
          293 374 -103 callsubr
          182 -449 151 callgsubr
          -847 -62 99 vlineto
          0 -7 -23 -44 vvcurveto
          -54 vlineto
          -45 11 -34 41 -17 vhcurveto
          -42 -14 -16 -36 -47 vvcurveto
          -44 vlineto
          -101 72 -47 116 58 72 15 15 40 vhcurveto
          -21 35 45 -8 48 189 callsubr
          endchar
        </CharString>
        <CharString name="dvG_BA">
          300 550 492 rmoveto
          178 callgsubr
          -103 -55 -44 -89 hvcurveto
          -170 vlineto
          61 callgsubr
          -739 165 callgsubr
          vlineto
          -93 callsubr
          269 354 vlineto
          -81 -459 rmoveto
          -44 callsubr
        </CharString>
        <CharString name="dvG_BHA">
          468 196 590 rmoveto
          64 62 -286 38 callgsubr
          322 -135 215 callsubr
          -99 -41 -42 -80 hvcurveto
          -94 -63 callsubr
        </CharString>
        <CharString name="dvG_BH_YA">
          755 196 590 rmoveto
          57 62 -279 38 callgsubr
          303 -135 rmoveto
          -39 -10 -23 -60 -59 -10 24 38 vhcurveto
          101 -53 callgsubr
          144 hmoveto
          29 20 -6 -24 hvcurveto
          -60 vlineto
          -132 92 -41 108 46 39 -62 callsubr
          -538 -62 183 183 callsubr
          -54 -22 -16 -68 -2 vhcurveto
          17 -14 -27 8 -40 hhcurveto
          -78 117 hlineto
          173 callgsubr
          -42 -47 -83 -23 4 -28 177 callsubr
          26 23 vvcurveto
          38 10 27 56 57 10 -26 -39 vhcurveto
          -115 -70 vlineto
          -99 -41 -41 -81 hvcurveto
          -104 vlineto
          -80 41 -44 99 100 41 44 80 vhcurveto
          164 vlineto
          321 175 27 callgsubr
        </CharString>
        <CharString name="dvG_DA">
          284 307 207 rmoveto
          -80 callsubr
          -723 -62 callgsubr
          333 -89 -70 vlineto
          -103 -49 -41 -88 hvcurveto
          endchar
        </CharString>
        <CharString name="dvG_DHA">
          370 340 590 rmoveto
          0 -10 81 callgsubr
          -56 vlineto
          -100 73 -47 109 49 33 6 8 28 vhcurveto
          -21 callsubr
          -533 -62 callgsubr
          vlineto
          endchar
        </CharString>
        <CharString name="dvG_DH_VA">
          606 852 493 rmoveto
          59 callsubr
          -16 2 -14 3 -13 vhcurveto
          -8 -33 -37 -5 -33 -44 callgsubr
          -505 -62 callgsubr
          142 vlineto
          206 callsubr
          -50 299 callgsubr
          -51 317 callgsubr
          48 51 11 10 39 vhcurveto
          -36 callsubr
        </CharString>
        <CharString name="dvG_DH_YA">
          674 810 523 -47 callsubr
          -505 -62 callgsubr
          142 vlineto
          206 callsubr
          -50 vlineto
          -45 11 -35 41 -17 vhcurveto
          34 callsubr
        </CharString>
        <CharString name="dvG_GA">
          332 745 652 rmoveto
          -771 -62 callgsubr
          166 -266 vlineto
          143 callgsubr
        </CharString>
        <CharString name="dvG_GHA">
          370 783 652 rmoveto
          -809 -62 callgsubr
          141 vlineto
          40 callgsubr
        </CharString>
        <CharString name="dvG_JA">
          416 534 353 rmoveto
          132 callsubr
          -103 callgsubr
          -855 -62 callgsubr
          466 -108 -318 -65 109 vlineto
          79 callsubr
          endchar
        </CharString>
        <CharString name="dvG_LA">
          496 310 156 -90 callgsubr
          -935 165 callgsubr
          vlineto
          -93 callsubr
          269 546 -43 callgsubr
          -97 -46 -51 -83 hvcurveto
          endchar
        </CharString>
        <CharString name="dvG_MA">
          448 502 186 3 callsubr
          -887 -62 callgsubr
          306 183 callgsubr
        </CharString>
        <CharString name="dvG_NA">
          451 697 415 rmoveto
          -415 -103 callgsubr
          -890 165 callgsubr
          vlineto
          -93 callsubr
          269 501 -110 -255 vlineto
          -92 -44 -42 -83 hvcurveto
          -28 callsubr
        </CharString>
        <CharString name="dvG_NNA">
          497 614 590 rmoveto
          129 -590 67 callgsubr
          -935 -62 callgsubr
          124 -339 vlineto
          39 callsubr
          -72 339 rmoveto
          115 callgsubr
        </CharString>
        <CharString name="dvG_N_YA">
          749 490 409 119 callsubr
          -151 vlineto
          -39 -14 -22 -52 -52 -14 23 38 vhcurveto
          160 vlineto
          39 14 23 52 vhcurveto
          450 114 rmoveto
          43 -7 -98 callsubr
          79 1 48 36 82 vvcurveto
          -78 141 rmoveto
          0 7 325 callgsubr
          61 -11 -53 25 -80 hhcurveto
          -169 282 callgsubr
          16 callsubr
          92 44 43 83 vhcurveto
          153 vlineto
          41 -11 27 2 vvcurveto
          42 hlineto
          50 34 -13 -38 hvcurveto
          -100 vlineto
          -132 93 -75 callsubr
          -1188 165 callgsubr
          vlineto
          -93 callsubr
          269 vlineto
          endchar
        </CharString>
        <CharString name="dvG_R">
          75 callgsubr
          endchar
        </CharString>
        <CharString name="dvG_RA">
          54 callsubr
          endchar
        </CharString>
        <CharString name="dvG_R_YA">
          378 516 523 -67 callsubr
          -79 141 rmoveto
          159 callgsubr
          -116 hlineto
          -245 -269 rlineto
          90 hlineto
          91 98 37 39 24 29 15 20 rlinecurve
          -76 28 75 -25 85 17 callsubr
          -818 -62 150 -252 vlineto
          36 callsubr
          256 vlineto
          endchar
        </CharString>
        <CharString name="dvG_SA">
          480 623 13 -86 callsubr
          156 -287 -103 callgsubr
          -919 -62 callgsubr
          327 -71 callgsubr
          103 337 rmoveto
          -126 hlineto
          -76 callgsubr
          130 hlineto
          endchar
        </CharString>
        <CharString name="dvG_VA">
          302 547 493 rmoveto
          4 -10 230 callsubr
          -169 vlineto
          -52 callgsubr
          -740 165 callgsubr
          vlineto
          -93 callsubr
          269 351 vlineto
          2 -447 -94 callgsubr
          endchar
        </CharString>
        <CharString name="dvG_YA">
          378 514 523 -63 callgsubr
          -132 93 -75 callsubr
          -817 165 callgsubr
          vlineto
          -93 callsubr
          269 vlineto
          endchar
        </CharString>
        <CharString name="dvGx">
          -133 196 590 rmoveto
          84 62 -306 38 callgsubr
          -105 -302 rmoveto
          -91 callgsubr
          endchar
        </CharString>
        <CharString name="dvGxA">
          96 107 15 rmoveto
          -91 callgsubr
          402 637 rmoveto
          -533 -62 150 -266 hlineto
          143 callgsubr
        </CharString>
        <CharString name="dvGx_R">
          75 callgsubr
          113 -441 rmoveto
          -91 callgsubr
          endchar
        </CharString>
        <CharString name="dvGx_RA">
          54 callsubr
          101 -120 rmoveto
          -91 callgsubr
          endchar
        </CharString>
        <CharString name="dvH">
          35 47 134 rmoveto
          -87 65 -53 120 59 42 7 11 28 vhcurveto
          63 vlineto
          -11 -39 -33 -5 -54 hhcurveto
          -83 -33 29 49 hvcurveto
          50 -65 callgsubr
          -474 -62 305 78 callsubr
          322 -396 -42 callgsubr
          endchar
        </CharString>
        <CharString name="dvHA">
          35 47 134 rmoveto
          -87 65 -53 120 59 42 7 11 28 vhcurveto
          63 vlineto
          -11 -39 -33 -5 -54 hhcurveto
          -83 -33 29 49 hvcurveto
          50 -65 callgsubr
          -474 -62 305 78 callsubr
          endchar
        </CharString>
        <CharString name="dvHA_mU">
          35 271 -6 rmoveto
          52 9 -19 -38 -38 -8 -20 -56 hvcurveto
          -73 hlineto
          -28 -19 5 36 -35 hvcurveto
          -49 50 rlineto
          -91 hlineto
          90 -94 rlineto
          -48 43 40 -13 44 hhcurveto
          85 hlineto
          91 35 36 86 87 -35 35 -88 hvcurveto
          -55 hlineto
          -81 -23 32 44 hvcurveto
          52 -65 callgsubr
          -474 -62 305 78 callsubr
          -54 vlineto
          -85 53 -53 123 vhcurveto
          endchar
        </CharString>
        <CharString name="dvHA_mUU">
          33 45 132 rmoveto
          -57 23 -36 49 -19 vhcurveto
          -24 -15 -10 -26 -40 vvcurveto
          -81 33 -36 86 10 79 2 0 vhcurveto
          62 vlineto
          0 -78 -2 -7 -47 -9 20 35 36 7 19 51 vhcurveto
          27 hlineto
          52 16 -11 -41 34 hvcurveto
          95 -116 rlineto
          85 hlineto
          -135 166 rlineto
          47 -39 -34 20 -69 hhcurveto
          -19 hlineto
          -81 -23 32 44 hvcurveto
          52 -65 callgsubr
          -472 -62 303 78 callsubr
          endchar
        </CharString>
        <CharString name="dvHA_mvR">
          87 117 201 rmoveto
          38 19 22 61 vhcurveto
          126 hlineto
          37 19 -5 -37 -37 -19 -4 -37 hvcurveto
          -6 hlineto
          -77 -47 -24 -81 -86 58 -19 88 42 43 6 8 32 hvcurveto
          60 vlineto
          -7 -34 -38 -5 -39 hhcurveto
          -58 -25 5 38 36 19 6 36 hvcurveto
          8 hlineto
          81 42 28 76 76 -42 28 -81 hvcurveto
          -129 hlineto
          -59 290 callgsubr
          1 vlineto
          37 15 22 59 vhcurveto
          203 149 103 62 -526 -62 351 -85 -129 hlineto
          -101 -46 -38 -81 hvcurveto
          -6 vlineto
          1 -46 17 -28 32 -15 rrcurveto
          -32 -14 -19 -28 -46 vvcurveto
          -221 vlineto
          -91 67 -54 120 59 42 7 10 28 vhcurveto
          60 vlineto
          -11 -38 -33 -5 -55 hhcurveto
          -83 -38 30 56 hvcurveto
          endchar
        </CharString>
        <CharString name="dvH_LA">
          617 431 156 -90 callgsubr
          -674 -62 507 -43 callgsubr
          -97 -46 -51 -83 hvcurveto
          endchar
        </CharString>
        <CharString name="dvH_MA">
          247 494 183 rmoveto
          -123 18 hlineto
          77 -39 39 -91 vhcurveto
          -36 hlineto
          -59 -17 21 40 hvcurveto
          2 vlineto
          40 14 22 60 vhcurveto
          164 148 127 hlineto
          -469 vmoveto
          -135 71 604 95 62 -686 -62 321 -85 -92 vlineto
          -100 -46 -37 -84 hvcurveto
          -5 vlineto
          -49 17 -28 34 -16 vhcurveto
          -35 -16 -18 -29 -46 vvcurveto
          -77 vlineto
          -85 38 -56 120 vhcurveto
          64 vlineto
          -74 -12 35 38 hvcurveto
          82 vlineto
          38 21 22 60 vhcurveto
          28 hlineto
          57 9 -22 -38 hvcurveto
          -133 69 58 vlineto
          endchar
        </CharString>
        <CharString name="dvH_NA">
          575 430 355 rmoveto
          -42 -233 vlineto
          226 callsubr
          156 149 470 135 callsubr
          391 60 rmoveto
          -415 -103 callgsubr
          -1014 -62 305 -85 -84 vlineto
          13 callsubr
          -54 vlineto
          -85 53 -53 120 49 50 5 8 42 vhcurveto
          236 callgsubr
          228 -64 101 callsubr
        </CharString>
        <CharString name="dvH_NNA">
          644 220 -6 rmoveto
          49 50 5 8 42 hvcurveto
          236 callgsubr
          266 hlineto
          -82 44 -51 103 103 44 51 83 vhcurveto
          339 129 -590 67 callgsubr
          -1083 -62 305 -85 -84 vlineto
          13 callsubr
          -54 vlineto
          -85 53 -53 120 vhcurveto
          248 596 rmoveto
          -277 -271 vlineto
          226 callsubr
          156 149 hlineto
          339 hmoveto
          115 callgsubr
        </CharString>
        <CharString name="dvH_R">
          1 callsubr
          336 -406 -42 callgsubr
          endchar
        </CharString>
        <CharString name="dvH_RA">
          1 callsubr
          endchar
        </CharString>
        <CharString name="dvH_VA">
          426 671 493 rmoveto
          4 -10 230 callsubr
          -169 vlineto
          -52 callgsubr
          -479 -62 312 vlineto
          2 -447 -94 callgsubr
          endchar
        </CharString>
        <CharString name="dvH_YA">
          237 400 140 rmoveto
          -39 hlineto
          7 12 4 15 20 vvcurveto
          20 vlineto
          77 -42 39 -97 vhcurveto
          -35 hlineto
          -60 -16 21 40 hvcurveto
          3 vlineto
          40 14 22 60 vhcurveto
          167 141 120 -440 hlineto
          -5 -17 -32 -5 -34 hhcurveto
          -150 hmoveto
          -65 146 vlineto
          39 32 5 5 16 hvcurveto
          -98 72 603 95 62 -676 -62 316 -78 -94 vlineto
          -101 -46 -38 -84 hvcurveto
          -3 vlineto
          -50 18 -29 34 -16 vhcurveto
          -36 -17 -17 -29 -47 vvcurveto
          -81 vlineto
          -85 38 -56 119 vhcurveto
          64 vlineto
          -73 -12 35 38 hvcurveto
          87 vlineto
          38 19 24 63 vhcurveto
          29 hlineto
          63 8 -23 -40 hvcurveto
          -22 vlineto
          -29 -15 -9 -37 vhcurveto
          endchar
        </CharString>
        <CharString name="dvI">
          13 118 170 rmoveto
          -69 -237 69 99 hlineto
          -5 20 32 -4 37 hhcurveto
          111 44 43 85 hvcurveto
          38 vlineto
          83 -48 42 -103 vhcurveto
          -23 hlineto
          -60 -16 24 37 hvcurveto
          5 vlineto
          37 16 23 60 vhcurveto
          146 150 92 62 -452 -62 288 -86 -74 hlineto
          -100 195 callgsubr
          -7 vlineto
          -83 49 -40 99 vhcurveto
          23 hlineto
          63 16 -26 -37 hvcurveto
          -35 vlineto
          -42 -25 -22 -64 -34 -27 3 4 -22 vhcurveto
          endchar
        </CharString>
        <CharString name="dvII">
          13 329 652 rmoveto
          -16 31 -17 42 31 vvcurveto
          49 34 15 41 13 13 -2 -1 10 vhcurveto
          64 vlineto
          1 -10 -17 3 -26 hhcurveto
          -66 -64 -30 -90 -42 17 -40 17 -31 26 callsubr
        </CharString>
        <CharString name="dvII_Anusvara">
          14 398 707 rmoveto
          315 callgsubr
          -22 10 -17 29 hvcurveto
          -69 -55 rmoveto
          -18 34 -18 49 33 vvcurveto
          53 35 19 44 12 13 -2 -1 10 vhcurveto
          61 vlineto
          1 -10 -17 3 -22 hhcurveto
          -73 -65 -31 -93 -46 18 -46 20 -34 26 callsubr
        </CharString>
        <CharString name="dvJ">
          -43 421 652 rmoveto
          -447 -62 447 hlineto
          -108 vmoveto
          -325 -100 callsubr
          143 hlineto
          endchar
        </CharString>
        <CharString name="dvJA">
          168 286 353 76 callsubr
        </CharString>
        <CharString name="dvJH">
          16 353 142 rmoveto
          44 vlineto
          256 callgsubr
          161 60 -290 hlineto
          122 callgsubr
          138 62 -513 -62 303 -85 -77 hlineto
          21 callgsubr
          endchar
        </CharString>
        <CharString name="dvJHA">
          218 202 251 rmoveto
          62 16 -26 -39 hvcurveto
          -40 vlineto
          -39 -21 -26 -63 -27 -27 3 6 -22 58 callgsubr
          -657 -62 297 -85 -74 hlineto
          -100 195 callgsubr
          155 callsubr
        </CharString>
        <CharString name="dvJH_MA">
          608 197 314 rmoveto
          122 callgsubr
          312 207 callgsubr
          -97 -41 -40 -78 -2 hvcurveto
          210 -128 3 callsubr
          -1046 -62 303 -85 -77 hlineto
          21 callgsubr
          44 vlineto
          256 callgsubr
          125 -70 hlineto
          46 callsubr
        </CharString>
        <CharString name="dvJH_NA">
          611 466 355 rmoveto
          -41 -269 vlineto
          122 callgsubr
          508 135 callsubr
          391 60 rmoveto
          -415 -103 callgsubr
          -1050 -62 303 -85 -77 vlineto
          21 callgsubr
          44 vlineto
          256 callgsubr
          140 -68 101 callsubr
        </CharString>
        <CharString name="dvJH_R">
          66 533 211 rmoveto
          -263 -298 rlineto
          84 hlineto
          99 109 37 41 39 52 4 12 rlinecurve
          -181 59 rmoveto
          256 callgsubr
          208 60 -331 hlineto
          -58 -16 23 38 hvcurveto
          6 vlineto
          37 17 22 59 vhcurveto
          196 150 132 62 -558 -62 354 -85 -124 hlineto
          -100 195 callgsubr
          -8 vlineto
          -84 49 -39 94 vhcurveto
          4 hlineto
          60 16 -27 -36 hvcurveto
          -43 193 callsubr
          40 87 hvcurveto
          endchar
        </CharString>
        <CharString name="dvJH_RA">
          262 352 186 rmoveto
          256 callgsubr
          175 -81 hlineto
          -230 -260 rlineto
          84 hlineto
          99 109 37 41 21 35 4 11 rlinecurve
          1 hlineto
          -2 -16 -2 -25 -26 vvcurveto
          -45 68 593 95 62 -701 -62 354 -85 -124 vlineto
          -100 195 callgsubr
          -8 vlineto
          -84 51 -39 94 vhcurveto
          2 hlineto
          60 16 -27 -36 hvcurveto
          -41 193 callsubr
          41 86 hvcurveto
          48 296 rmoveto
          150 108 -276 -306 vlineto
          -58 1 -16 22 38 vvcurveto
          6 vlineto
          37 17 22 59 vhcurveto
          endchar
        </CharString>
        <CharString name="dvJH_YA">
          530 467 385 rmoveto
          -71 -270 vlineto
          122 callgsubr
          239 hlineto
          177 callgsubr
          177 138 -103 callsubr
          -542 -424 rmoveto
          190 callgsubr
          43 39 87 hvcurveto
          44 vlineto
          256 callgsubr
          141 hlineto
          -128 93 -75 callsubr
          -969 -62 303 -85 -77 vlineto
          56 callgsubr
          vlineto
          endchar
        </CharString>
        <CharString name="dvJ_BA">
          397 647 492 rmoveto
          178 callgsubr
          -43 -34 -8 -15 -26 hvcurveto
          -362 -100 callsubr
          132 hlineto
          -5 -14 -2 -16 -18 vvcurveto
          -170 vlineto
          61 callgsubr
          -836 -62 673 vlineto
          -81 -459 rmoveto
          -44 callsubr
        </CharString>
        <CharString name="dvJ_DA">
          379 402 207 rmoveto
          -80 callsubr
          -818 -62 650 -89 -70 hlineto
          -38 -31 -6 -11 -23 hvcurveto
          -366 -66 109 hlineto
          0 9 0 callgsubr
          -167 vlineto
          -46 -25 -29 -63 -36 -27 5 7 -28 vhcurveto
          -67 vlineto
          -7 26 24 -4 42 111 callgsubr
          171 256 callsubr
          130 hlineto
          -4 -14 -2 -17 -18 vvcurveto
          endchar
        </CharString>
        <CharString name="dvJ_DDA">
          369 710 -11 callsubr
          -807 -62 635 -85 -69 hlineto
          -44 -34 -8 -15 -24 hvcurveto
          -342 -100 callsubr
          117 hlineto
          -3 -11 -1 -13 -14 vvcurveto
          -6 callsubr
        </CharString>
        <CharString name="dvJ_JA">
          525 643 353 17 callgsubr
        </CharString>
        <CharString name="dvJ_JHA">
          559 543 251 rmoveto
          62 16 -26 -39 hvcurveto
          -40 vlineto
          -39 -21 -26 -63 -27 -27 3 6 -22 58 callgsubr
          -998 -62 638 -85 -74 hlineto
          -44 -33 -8 -15 -24 hvcurveto
          -341 -100 callsubr
          116 hlineto
          -3 -11 -1 -13 -14 vvcurveto
          155 callsubr
        </CharString>
        <CharString name="dvJ_J_NYA">
          590 421 482 rmoveto
          -325 -100 callsubr
          143 hlineto
          415 170 rmoveto
          -108 -327 -62 119 vlineto
          -18 callgsubr
          136 -420 82 callgsubr
          -1029 -62 hlineto
          endchar
        </CharString>
        <CharString name="dvJ_J_VA">
          755 1000 161 callgsubr
          -40 -32 -8 -15 -24 hvcurveto
          -719 33 callsubr
          132 hlineto
          -5 -15 -2 -16 -18 vvcurveto
          -169 vlineto
          -52 callgsubr
          -1193 -62 1026 vlineto
          2 -447 -94 callgsubr
          endchar
        </CharString>
        <CharString name="dvJ_J_YA">
          830 965 114 callsubr
          -47 -17 -18 -50 -5 vhcurveto
          65 -3 -44 30 -89 hhcurveto
          -595 33 callsubr
          49 hlineto
          57 21 -8 -32 4 hvcurveto
          -122 vlineto
          -132 93 -75 callsubr
          -1268 -62 vlineto
          endchar
        </CharString>
        <CharString name="dvJ_KA">
          558 618 135 callgsubr
          -39 -31 -7 -15 -23 hvcurveto
          -356 -100 callsubr
          129 hlineto
          -3 -13 -2 -15 -16 vvcurveto
          -83 callsubr
          71 308 callsubr
          18 22 3 23 -89 callsubr
          281 62 -996 -62 vlineto
          endchar
        </CharString>
        <CharString name="dvJ_MA">
          545 668 346 callgsubr
          -193 -246 -70 callsubr
          193 -369 rmoveto
          67 callgsubr
          -983 -62 624 207 callgsubr
          -17 -16 -1 -3 -14 hvcurveto
          37 -16 -46 17 -70 hhcurveto
          -253 -100 callsubr
          60 hlineto
          42 27 -5 -15 12 hvcurveto
          -21 -21 -10 -30 -39 143 callsubr
        </CharString>
        <CharString name="dvJ_NA">
          556 802 415 rmoveto
          -415 -103 callgsubr
          -995 -62 828 266 callsubr
          -46 -34 -11 -21 -23 hvcurveto
          23 -22 -38 11 -48 hhcurveto
          -240 -100 callsubr
          64 hlineto
          39 23 -10 -17 11 hvcurveto
          -3 -12 -1 -12 -14 -27 callgsubr
        </CharString>
        <CharString name="dvJ_NY">
          11 323 callsubr
          -108 vmoveto
          -366 -62 119 hlineto
          -18 callgsubr
          175 hlineto
          endchar
        </CharString>
        <CharString name="dvJ_NYA">
          221 466 590 rmoveto
          -108 -327 -62 119 vlineto
          -18 callgsubr
          136 -420 82 callgsubr
          -659 -62 hlineto
          endchar
        </CharString>
        <CharString name="dvJ_NY_YA">
          522 258 420 rmoveto
          -18 callgsubr
          51 hlineto
          57 21 -8 -45 hvcurveto
          -109 vlineto
          -132 83 -41 108 63 35 15 21 20 vhcurveto
          -121 -103 callgsubr
          -961 -62 549 vlineto
          49 15 -25 -42 hvcurveto
          -52 vlineto
          -47 -17 -18 -50 -4 vhcurveto
          61 -61 19 -73 vhcurveto
          -247 -62 hlineto
          392 -156 rmoveto
          80 vlineto
          79 2 48 322 callsubr
          134 -345 hlineto
          -63 -7 -28 -30 -81 hhcurveto
          -92 -29 37 75 hvcurveto
          endchar
        </CharString>
        <CharString name="dvJ_R">
          -31 145 43 callsubr
          endchar
        </CharString>
        <CharString name="dvJ_RA">
          177 424 25 callgsubr
          endchar
        </CharString>
        <CharString name="dvJ_TA">
          411 411 126 rmoveto
          -77 callsubr
          -849 -62 682 -100 vlineto
          134 callgsubr
          -38 -30 -7 -13 -24 hvcurveto
          -376 -100 callsubr
          142 hlineto
          -6 -16 -3 -18 -20 vvcurveto
          endchar
        </CharString>
        <CharString name="dvJ_TTA">
          368 483 204 callsubr
          -804 -62 642 -90 -52 hlineto
          -37 -30 -6 -12 -24 hvcurveto
          -377 -100 callsubr
          141 hlineto
          -5 -16 -3 -18 -20 175 callgsubr
        </CharString>
        <CharString name="dvJ_VA">
          398 644 161 callgsubr
          -40 -32 -8 -15 -24 hvcurveto
          -363 -100 callsubr
          133 hlineto
          -5 -15 -2 -16 -18 vvcurveto
          -169 vlineto
          -52 callgsubr
          -837 -62 670 vlineto
          2 -447 -94 callgsubr
          endchar
        </CharString>
        <CharString name="dvJ_YA">
          472 608 523 -24 callgsubr
          80 vlineto
          80 2 48 202 callsubr
          -47 -17 -17 -48 -5 vhcurveto
          62 -5 -58 18 -72 hhcurveto
          -241 -100 callsubr
          48 hlineto
          58 25 -7 -45 hvcurveto
          -110 vlineto
          -132 93 -75 callsubr
          -911 -62 vlineto
          endchar
        </CharString>
        <CharString name="dvJx">
          -43 88 -111 rmoveto
          -17 callsubr
          333 763 rmoveto
          -447 -62 447 hlineto
          -108 vmoveto
          -325 -100 callsubr
          143 hlineto
          endchar
        </CharString>
        <CharString name="dvJxA">
          168 41 -94 rmoveto
          -91 callgsubr
          245 447 76 callsubr
        </CharString>
        <CharString name="dvJx_JxA">
          525 31 5 rmoveto
          -34 -11 -19 -26 -25 11 -20 34 34 11 20 25 120 callsubr
          hvcurveto
          361 -90 rmoveto
          33 12 98 callgsubr
          251 438 17 callgsubr
        </CharString>
        <CharString name="dvJx_R">
          -7 159 43 callsubr
          -414 -456 rmoveto
          -91 callgsubr
          endchar
        </CharString>
        <CharString name="dvJx_RA">
          191 438 25 callgsubr
          -251 -448 rmoveto
          -91 callgsubr
          endchar
        </CharString>
        <CharString name="dvJx_YA">
          472 31 -91 rmoveto
          -17 callsubr
          577 614 -24 callgsubr
          80 vlineto
          80 2 48 202 callsubr
          -47 -17 -17 -48 -5 vhcurveto
          62 -5 -58 18 -72 hhcurveto
          -241 -65 109 hlineto
          0 9 0 callgsubr
          -163 vlineto
          -46 -25 -29 -63 -36 -27 5 7 -28 vhcurveto
          -67 vlineto
          -7 26 24 -4 42 111 callgsubr
          167 256 callsubr
          48 hlineto
          58 25 -7 -45 hvcurveto
          -110 vlineto
          -132 93 -75 callsubr
          -911 -62 vlineto
          endchar
        </CharString>
        <CharString name="dvK">
          16 331 431 rmoveto
          -431 -33 callgsubr
          451 -286 62 595 -62 -238 -95 vlineto
          6 19 29 3 24 hhcurveto
          106 30 -52 -77 hvcurveto
          -21 -67 20 vlineto
          40 -11 26 -61 -23 -25 -2 -7 -21 vhcurveto
          endchar
        </CharString>
        <CharString name="dvKA">
          200 260 590 -4 callgsubr
        </CharString>
        <CharString name="dvKH">
          143 450 252 -19 callsubr
        </CharString>
        <CharString name="dvKHA">
          350 382 91 callsubr
          -788 -62 272 vlineto
          -102 callgsubr
          280 -97 hlineto
          4 -20 -28 5 -30 hhcurveto
          -99 109 callgsubr
          -12 -28 10 callgsubr
          29 25 -4 -4 18 vhcurveto
          endchar
        </CharString>
        <CharString name="dvKH_KHA">
          900 5 callgsubr
          697 -56 239 callgsubr
          29 25 -4 -4 18 vhcurveto
          -214 -177 rmoveto
          -83 39 297 callsubr
          95 62 -1339 -62 272 vlineto
          -102 callgsubr
          481 hlineto
          -58 callgsubr
          -21 -23 3 3 -18 vhcurveto
          46 vlineto
          83 -40 46 -103 -102 -38 -46 -83 vhcurveto
          89 callsubr
          31 26 3 8 20 vhcurveto
          -97 19 84 -42 117 hhcurveto
          51 54 7 9 34 hvcurveto
          68 vlineto
          -9 -31 -47 -9 -58 hhcurveto
          -96 -61 33 84 hvcurveto
          82 vlineto
          -3 18 21 -3 27 59 callgsubr
          -37 -47 -83 hvcurveto
          endchar
        </CharString>
        <CharString name="dvKH_MA">
          750 804 186 rmoveto
          -39 -11 -22 -59 22 callsubr
          -1189 -62 272 hlineto
          -102 callgsubr
          488 207 callgsubr
          -31 -25 -4 -8 -19 hvcurveto
          53 -14 -41 28 -81 hhcurveto
          16 callgsubr
          33 26 4 8 20 vhcurveto
          -49 14 41 -26 77 hhcurveto
          99 41 43 80 hvcurveto
          221 callgsubr
          -547 -117 -73 callgsubr
          endchar
        </CharString>
        <CharString name="dvKH_NA">
          741 5 callgsubr
          537 163 rmoveto
          -415 -103 callgsubr
          -1180 -62 272 vlineto
          -102 callgsubr
          671 238 callgsubr
          hlineto
          -40 -31 -8 -16 -22 hvcurveto
          29 -20 -36 16 -60 hhcurveto
          16 callgsubr
          33 26 4 10 20 vhcurveto
          -52 15 43 -26 72 -67 callgsubr
        </CharString>
        <CharString name="dvKH_R">
          145 -28 callgsubr
          endchar
        </CharString>
        <CharString name="dvKH_RA">
          349 -31 callsubr
          endchar
        </CharString>
        <CharString name="dvKH_SHA">
          748 450 252 rmoveto
          82 vlineto
          39 13 26 60 60 13 -26 -39 vhcurveto
          -82 104 callgsubr
          224 62 -566 -3 callsubr
          586 640 124 callsubr
          vhcurveto
          -14 2 -17 -2 vvcurveto
          72 hlineto
          0 -2 17 14 vvcurveto
          38 16 31 63 63 16 -30 -38 vhcurveto
          -137 vlineto
          -39 -16 -29 -63 -14 -32 2 4 -35 vhcurveto
          11 vlineto
          83 -38 45 -103 -102 -38 -45 -83 vhcurveto
          -82 vlineto
          -90 38 -38 102 30 24 3 7 20 vhcurveto
          -85 7 63 -52 103 265 callgsubr
          -36 -26 callgsubr
          30 -6 330 callsubr
          endchar
        </CharString>
        <CharString name="dvKH_TA">
          593 596 126 rmoveto
          -79 36 -48 94 vhcurveto
          22 67 hlineto
          -64 -1 -18 24 41 vvcurveto
          234 vlineto
          41 22 31 65 35 33 -8 -4 18 vhcurveto
          -424 -103 callgsubr
          -1032 -62 272 vlineto
          -102 callgsubr
          523 -100 hlineto
          134 callgsubr
          -51 -37 -13 -23 -25 hvcurveto
          23 -23 -35 12 -53 hhcurveto
          16 callgsubr
          29 25 3 7 19 vhcurveto
          -146 118 -73 callgsubr
          endchar
        </CharString>
        <CharString name="dvKH_VA">
          591 5 callgsubr
          389 -109 -94 callgsubr
          -2 63 rmoveto
          4 -10 126 callgsubr
          332 callsubr
          hvcurveto
          -80 73 590 94 62 -1030 -62 272 vlineto
          -102 callgsubr
          521 hlineto
          endchar
        </CharString>
        <CharString name="dvKH_YA">
          659 5 callgsubr
          345 271 -103 callsubr
          -78 141 rmoveto
          0 7 303 callsubr
          -48 -5 vhcurveto
          69 -5 -35 45 -96 hhcurveto
          16 callgsubr
          48 33 10 19 21 vhcurveto
          -50 36 65 -18 71 17 callsubr
          -1098 -62 272 vlineto
          -102 callgsubr
          endchar
        </CharString>
        <CharString name="dvKHx">
          145 36 -110 rmoveto
          34 11 19 26 25 -11 20 -33 -34 -12 -20 -25 14 callgsubr
          414 362 -19 callsubr
        </CharString>
        <CharString name="dvKHxA">
          350 37 -110 23 callgsubr
          346 362 rmoveto
          -83 39 297 callsubr
          95 62 -789 -62 273 vlineto
          -55 callgsubr
          -60 -21 -23 3 3 -18 vhcurveto
          117 -70 -265 vlineto
          -128 90 -54 133 51 54 7 9 35 vhcurveto
          74 callsubr
          -58 hhcurveto
          -96 -60 33 84 hvcurveto
          82 vlineto
          -3 18 22 -3 25 59 callgsubr
          -37 -47 -83 hvcurveto
          214 223 callsubr
          24 -4 -4 18 vhcurveto
          endchar
        </CharString>
        <CharString name="dvKHx_MA">
          753 5 callgsubr
          -413 -362 23 callgsubr
          769 296 3 callsubr
          -1191 -62 272 hlineto
          -102 callgsubr
          490 207 callgsubr
          -31 -26 -4 -9 -20 hvcurveto
          53 -14 -41 29 -81 hhcurveto
          16 callgsubr
          33 26 4 8 20 vhcurveto
          -49 15 42 -26 77 171 callsubr
        </CharString>
        <CharString name="dvKHx_R">
          144 -28 callgsubr
          309 44 rmoveto
          -91 callgsubr
          endchar
        </CharString>
        <CharString name="dvKHx_RA">
          354 -31 callsubr
          -112 -516 rmoveto
          -91 callgsubr
          endchar
        </CharString>
</ttFont>
